<svg width="25" height="25" viewBox="0 0 25 25" fill="none" xmlns="http://www.w3.org/2000/svg">
<g clip-path="url(#clip0_338_37417)">
<path d="M12.8244 20.1917C17.7929 20.1917 21.8206 16.164 21.8206 11.1955C21.8206 6.22694 17.7929 2.19922 12.8244 2.19922C7.85585 2.19922 3.82812 6.22694 3.82812 11.1955C3.82812 16.164 7.85585 20.1917 12.8244 20.1917Z" fill="white" fill-opacity="0.01"/>
<path d="M9.22656 12.9955C9.22656 12.9955 10.5762 14.7949 12.8255 14.7949C15.0749 14.7949 16.4245 12.9955 16.4245 12.9955M15.9746 8.49675C15.9746 8.61606 15.9272 8.73049 15.8429 8.81485C15.7585 8.89922 15.6441 8.94662 15.5248 8.94662C15.4054 8.94662 15.291 8.89922 15.2066 8.81485C15.1223 8.73049 15.0749 8.61606 15.0749 8.49675C15.0749 8.37743 15.1223 8.26301 15.2066 8.17864C15.291 8.09427 15.4054 8.04688 15.5248 8.04688C15.6441 8.04688 15.7585 8.09427 15.8429 8.17864C15.9272 8.26301 15.9746 8.37743 15.9746 8.49675ZM10.5762 8.49675C10.5762 8.61606 10.5288 8.73049 10.4444 8.81485C10.36 8.89922 10.2456 8.94662 10.1263 8.94662C10.007 8.94662 9.89256 8.89922 9.8082 8.81485C9.72383 8.73049 9.67643 8.61606 9.67643 8.49675C9.67643 8.37743 9.72383 8.26301 9.8082 8.17864C9.89256 8.09427 10.007 8.04688 10.1263 8.04688C10.2456 8.04688 10.36 8.09427 10.4444 8.17864C10.5288 8.26301 10.5762 8.37743 10.5762 8.49675Z" fill="white" fill-opacity="0.01"/>
<path d="M9.22587 12.9947C9.22587 12.9947 10.5753 14.794 12.8244 14.794C15.0734 14.794 16.4229 12.9947 16.4229 12.9947M15.5233 8.49659H15.5322M10.1255 8.49659H10.1345M21.8206 11.1955C21.8206 16.164 17.7929 20.1917 12.8244 20.1917C7.85585 20.1917 3.82812 16.164 3.82812 11.1955C3.82812 6.22694 7.85585 2.19922 12.8244 2.19922C17.7929 2.19922 21.8206 6.22694 21.8206 11.1955ZM15.9731 8.49659C15.9731 8.61589 15.9257 8.7303 15.8413 8.81466C15.757 8.89902 15.6425 8.94641 15.5233 8.94641C15.404 8.94641 15.2895 8.89902 15.2052 8.81466C15.1208 8.7303 15.0734 8.61589 15.0734 8.49659C15.0734 8.3773 15.1208 8.26288 15.2052 8.17853C15.2895 8.09417 15.404 8.04678 15.5233 8.04678C15.6425 8.04678 15.757 8.09417 15.8413 8.17853C15.9257 8.26288 15.9731 8.3773 15.9731 8.49659ZM10.5753 8.49659C10.5753 8.61589 10.5279 8.7303 10.4436 8.81466C10.3592 8.89902 10.2448 8.94641 10.1255 8.94641C10.0062 8.94641 9.89179 8.89902 9.80743 8.81466C9.72308 8.7303 9.67569 8.61589 9.67569 8.49659C9.67569 8.3773 9.72308 8.26288 9.80743 8.17853C9.89179 8.09417 10.0062 8.04678 10.1255 8.04678C10.2448 8.04678 10.3592 8.09417 10.4436 8.17853C10.5279 8.26288 10.5753 8.3773 10.5753 8.49659Z" stroke="#6C737F" stroke-width="1.99943" stroke-linecap="round" stroke-linejoin="round"/>
</g>
<defs>
<clipPath id="clip0_338_37417">
<rect width="23.99" height="23.99" fill="white" transform="translate(0.830078 0.200195)"/>
</clipPath>
</defs>
</svg>
