<svg width="25" height="25" viewBox="0 0 25 25" fill="none" xmlns="http://www.w3.org/2000/svg">
<g clip-path="url(#clip0_338_37404)">
<path d="M7.33414 19.8266L15.8335 11.3272C16.2293 10.9314 16.4274 10.7334 16.6556 10.6593C16.8563 10.594 17.0726 10.594 17.2733 10.6593C17.5015 10.7334 17.6995 10.9314 18.0954 11.3272L21.9623 15.1942V16.3937C21.9623 18.0732 21.9623 18.9129 21.6355 19.5544C21.348 20.1186 20.8893 20.5774 20.325 20.8649C19.6835 21.1917 18.8438 21.1917 17.1643 21.1917H7.89961C7.29396 21.1917 6.99118 21.1917 6.85104 21.072C6.79106 21.0208 6.74405 20.9561 6.71386 20.8832C6.68366 20.8103 6.67114 20.7314 6.67732 20.6527C6.69181 20.4689 6.90602 20.2548 7.33414 19.8266Z" fill="white" fill-opacity="0.01"/>
<path d="M3.96875 7.99722C3.96875 6.31772 3.96875 5.47807 4.29561 4.83654C4.58311 4.27231 5.04184 3.81358 5.60607 3.52608C6.2476 3.19922 7.08725 3.19922 8.76675 3.19922H17.1633C18.8428 3.19922 19.6824 3.19922 20.3239 3.52608C20.8882 3.81356 21.3469 4.2723 21.6344 4.83654C21.9613 5.47807 21.9613 6.31772 21.9613 7.99722V16.3937C21.9613 18.0732 21.9613 18.9129 21.6344 19.5544C21.3469 20.1187 20.8882 20.5774 20.3239 20.8649C19.6824 21.1917 18.8428 21.1917 17.1633 21.1917H8.76675C7.08725 21.1917 6.2476 21.1917 5.60607 20.8649C5.04183 20.5774 4.58309 20.1186 4.29561 19.5544C3.96875 18.9129 3.96875 18.0732 3.96875 16.3937V7.99722Z" fill="white" fill-opacity="0.01"/>
<path d="M9.46818 10.6961C10.5725 10.6961 11.4676 9.80097 11.4676 8.69669C11.4676 7.59241 10.5725 6.69727 9.46818 6.69727C8.36389 6.69727 7.46875 7.59241 7.46875 8.69669C7.46875 9.80097 8.36389 10.6961 9.46818 10.6961Z" fill="white" fill-opacity="0.01"/>
</g>
<defs>
<clipPath id="clip0_338_37404">
<rect width="23.99" height="23.99" fill="white" transform="translate(0.970703 0.200195)"/>
</clipPath>
</defs>
</svg>
