<svg width="25" height="21" viewBox="0 0 25 21" fill="none" xmlns="http://www.w3.org/2000/svg">
<mask id="path-1-inside-1_60_1447" fill="white">
<path fill-rule="evenodd" clip-rule="evenodd" d="M18.75 7.875C17.8875 7.875 17.1875 8.463 17.1875 9.1875C17.1875 9.912 17.8875 10.5 18.75 10.5C19.6125 10.5 20.3125 9.912 20.3125 9.1875C20.3125 8.463 19.6125 7.875 18.75 7.875ZM12.5 17.0625C11.5875 17.0625 10.7062 16.9732 9.85937 16.8217L6.18125 18.6789L6.23047 15.6345C3.41094 14.2104 1.5625 11.8558 1.5625 9.1875C1.5625 4.83853 6.45937 1.3125 12.5 1.3125C18.5406 1.3125 23.4375 4.83853 23.4375 9.1875C23.4375 13.5371 18.5406 17.0625 12.5 17.0625ZM12.5 0C5.59687 0 0 4.11403 0 9.1875C0 12.0875 1.83203 14.6698 4.6875 16.3531V21L10.1633 18.209C10.9211 18.314 11.7008 18.375 12.5 18.375C19.4031 18.375 25 14.2616 25 9.1875C25 4.11403 19.4031 0 12.5 0ZM6.25 7.875C5.3875 7.875 4.6875 8.463 4.6875 9.1875C4.6875 9.912 5.3875 10.5 6.25 10.5C7.1125 10.5 7.8125 9.912 7.8125 9.1875C7.8125 8.463 7.1125 7.875 6.25 7.875ZM12.5 7.875C11.6375 7.875 10.9375 8.463 10.9375 9.1875C10.9375 9.912 11.6375 10.5 12.5 10.5C13.3625 10.5 14.0625 9.912 14.0625 9.1875C14.0625 8.463 13.3625 7.875 12.5 7.875Z"/>
</mask>
<path fill-rule="evenodd" clip-rule="evenodd" d="M18.75 7.875C17.8875 7.875 17.1875 8.463 17.1875 9.1875C17.1875 9.912 17.8875 10.5 18.75 10.5C19.6125 10.5 20.3125 9.912 20.3125 9.1875C20.3125 8.463 19.6125 7.875 18.75 7.875ZM12.5 17.0625C11.5875 17.0625 10.7062 16.9732 9.85937 16.8217L6.18125 18.6789L6.23047 15.6345C3.41094 14.2104 1.5625 11.8558 1.5625 9.1875C1.5625 4.83853 6.45937 1.3125 12.5 1.3125C18.5406 1.3125 23.4375 4.83853 23.4375 9.1875C23.4375 13.5371 18.5406 17.0625 12.5 17.0625ZM12.5 0C5.59687 0 0 4.11403 0 9.1875C0 12.0875 1.83203 14.6698 4.6875 16.3531V21L10.1633 18.209C10.9211 18.314 11.7008 18.375 12.5 18.375C19.4031 18.375 25 14.2616 25 9.1875C25 4.11403 19.4031 0 12.5 0ZM6.25 7.875C5.3875 7.875 4.6875 8.463 4.6875 9.1875C4.6875 9.912 5.3875 10.5 6.25 10.5C7.1125 10.5 7.8125 9.912 7.8125 9.1875C7.8125 8.463 7.1125 7.875 6.25 7.875ZM12.5 7.875C11.6375 7.875 10.9375 8.463 10.9375 9.1875C10.9375 9.912 11.6375 10.5 12.5 10.5C13.3625 10.5 14.0625 9.912 14.0625 9.1875C14.0625 8.463 13.3625 7.875 12.5 7.875Z" fill="#3CA3CF"/>
<path d="M9.85937 16.8217L12.6786 1.07199L7.41813 0.130344L2.64766 2.5391L9.85937 16.8217ZM6.18125 18.6789L-9.81666 18.4202L-10.2447 44.8968L13.393 32.9614L6.18125 18.6789ZM6.23047 15.6345L22.2284 15.8932L22.3904 5.87144L13.4438 1.35275L6.23047 15.6345ZM4.6875 16.3531H20.6875V7.21188L12.8127 2.56974L4.6875 16.3531ZM4.6875 21H-11.3125V47.1138L11.9534 35.2551L4.6875 21ZM10.1633 18.209L12.3592 2.36038L7.37789 1.67019L2.89742 3.9539L10.1633 18.209ZM18.75 -8.125C11.778 -8.125 1.1875 -2.87374 1.1875 9.1875H33.1875C33.1875 19.7997 23.997 23.875 18.75 23.875V-8.125ZM1.1875 9.1875C1.1875 21.2487 11.778 26.5 18.75 26.5V-5.5C23.997 -5.5 33.1875 -1.42474 33.1875 9.1875H1.1875ZM18.75 26.5C25.722 26.5 36.3125 21.2487 36.3125 9.1875H4.3125C4.3125 -1.42474 13.503 -5.5 18.75 -5.5V26.5ZM36.3125 9.1875C36.3125 -2.87374 25.722 -8.125 18.75 -8.125V23.875C13.503 23.875 4.3125 19.7997 4.3125 9.1875H36.3125ZM12.5 1.0625C12.6347 1.0625 12.7009 1.07599 12.6786 1.07199L7.04012 32.5713C8.71155 32.8705 10.5403 33.0625 12.5 33.0625V1.0625ZM2.64766 2.5391L-1.03046 4.3963L13.393 32.9614L17.0711 31.1042L2.64766 2.5391ZM22.1792 18.9375L22.2284 15.8932L-9.76744 15.3758L-9.81666 18.4202L22.1792 18.9375ZM13.4438 1.35275C13.9645 1.61574 17.5625 3.82306 17.5625 9.1875H-14.4375C-14.4375 19.8886 -7.14257 26.8051 -0.98282 29.9163L13.4438 1.35275ZM17.5625 9.1875C17.5625 13.4646 15.1254 15.8761 14.115 16.6036C13.5584 17.0044 13.1251 17.17 12.9041 17.2373C12.6703 17.3085 12.5364 17.3125 12.5 17.3125V-14.6875C6.50097 -14.6875 0.409905 -12.9603 -4.58301 -9.3653C-9.55196 -5.78757 -14.4375 0.561399 -14.4375 9.1875H17.5625ZM12.5 17.3125C12.4636 17.3125 12.3297 17.3085 12.0959 17.2373C11.8749 17.17 11.4416 17.0044 10.885 16.6036C9.8746 15.8761 7.4375 13.4646 7.4375 9.1875H39.4375C39.4375 0.561399 34.552 -5.78757 29.583 -9.3653C24.5901 -12.9603 18.499 -14.6875 12.5 -14.6875V17.3125ZM7.4375 9.1875C7.4375 4.91112 9.87417 2.49941 10.8853 1.77141C11.4422 1.3705 11.8756 1.20489 12.0965 1.13761C12.3302 1.06645 12.4639 1.0625 12.5 1.0625V33.0625C18.4984 33.0625 24.5894 31.3358 29.5827 27.7408C34.5524 24.1627 39.4375 17.8135 39.4375 9.1875H7.4375ZM12.5 -16C5.99509 -16 -0.532192 -14.0836 -5.81461 -10.2009C-11.0887 -6.32438 -16 0.344178 -16 9.1875H16C16 12.9574 13.8871 15.0322 13.1373 15.5833C12.3791 16.1406 12.1018 16 12.5 16V-16ZM-16 9.1875C-16 19.3741 -9.59191 26.5086 -3.43771 30.1365L12.8127 2.56974C13.256 2.83104 16 4.80087 16 9.1875H-16ZM-11.3125 16.3531V21H20.6875V16.3531H-11.3125ZM11.9534 35.2551L17.4291 32.4641L2.89742 3.9539L-2.57836 6.74492L11.9534 35.2551ZM7.96735 34.0576C9.36812 34.2517 10.8854 34.375 12.5 34.375V2.375C12.5162 2.375 12.4741 2.3763 12.3592 2.36038L7.96735 34.0576ZM12.5 34.375C19.0043 34.375 25.5316 32.4591 30.8143 28.5764C36.089 24.6996 41 18.0308 41 9.1875H9C9 5.41834 11.1125 3.34332 11.863 2.79171C12.6215 2.23424 12.8988 2.375 12.5 2.375V34.375ZM41 9.1875C41 0.344178 36.0887 -6.32438 30.8146 -10.2009C25.5322 -14.0836 19.0049 -16 12.5 -16V16C12.8982 16 12.6209 16.1406 11.8627 15.5833C11.1129 15.0322 9 12.9574 9 9.1875H41ZM6.25 -8.125C-0.722029 -8.125 -11.3125 -2.87374 -11.3125 9.1875H20.6875C20.6875 19.7997 11.497 23.875 6.25 23.875V-8.125ZM-11.3125 9.1875C-11.3125 21.2487 -0.722029 26.5 6.25 26.5V-5.5C11.497 -5.5 20.6875 -1.42474 20.6875 9.1875H-11.3125ZM6.25 26.5C13.222 26.5 23.8125 21.2487 23.8125 9.1875H-8.1875C-8.1875 -1.42474 1.00297 -5.5 6.25 -5.5V26.5ZM23.8125 9.1875C23.8125 -2.87374 13.222 -8.125 6.25 -8.125V23.875C1.00297 23.875 -8.1875 19.7997 -8.1875 9.1875H23.8125ZM12.5 -8.125C5.52797 -8.125 -5.0625 -2.87374 -5.0625 9.1875H26.9375C26.9375 19.7997 17.747 23.875 12.5 23.875V-8.125ZM-5.0625 9.1875C-5.0625 21.2487 5.52797 26.5 12.5 26.5V-5.5C17.747 -5.5 26.9375 -1.42474 26.9375 9.1875H-5.0625ZM12.5 26.5C19.472 26.5 30.0625 21.2487 30.0625 9.1875H-1.9375C-1.9375 -1.42474 7.25297 -5.5 12.5 -5.5V26.5ZM30.0625 9.1875C30.0625 -2.87374 19.472 -8.125 12.5 -8.125V23.875C7.25297 23.875 -1.9375 19.7997 -1.9375 9.1875H30.0625Z" fill="#3CA3CF" mask="url(#path-1-inside-1_60_1447)"/>
</svg>
