<svg width="44" height="37" viewBox="0 0 44 37" fill="none" xmlns="http://www.w3.org/2000/svg">
<g clip-path="url(#clip0_653_2147)">
<g filter="url(#filter0_dd_653_2147)">
<path fill-rule="evenodd" clip-rule="evenodd" d="M25.6667 10.7917H38.5C41.5377 10.7917 44 12.8624 44 15.4167V32.375C44 34.9294 41.5377 37 38.5 37H23.8333C20.7957 37 18.3333 34.9294 18.3333 32.375V26.2083H5.5C2.46244 26.2083 0 24.1377 0 21.5833V4.625C0 2.07069 2.46244 0 5.5 0H20.1667C23.2043 0 25.6667 2.07069 25.6667 4.625V10.7917ZM25.6667 13.875V16.9583H29.3333C29.3333 16.1069 30.1541 15.4167 31.1667 15.4167C32.1792 15.4167 33 16.1069 33 16.9583H34.7956C34.8194 16.9579 34.8432 16.9579 34.8672 16.9583H36.6667C37.6792 16.9583 38.5 17.6485 38.5 18.5C38.5 19.3515 37.6792 20.0417 36.6667 20.0417H36.2973C35.6109 22.3167 34.564 24.398 33.1606 26.2802C34.445 27.4899 35.9515 28.5794 37.6838 29.5505C38.5262 30.0229 38.7539 30.9801 38.1924 31.6885C37.6306 32.3969 36.4923 32.5884 35.6499 32.1162C33.8859 31.1272 32.3158 30.0232 30.9417 28.8054C29.724 29.9919 28.332 31.0795 26.7667 32.0667C25.9567 32.5776 24.8076 32.4394 24.2 31.7583C23.5924 31.0772 23.7567 30.1109 24.5667 29.6C26.1024 28.6314 27.4404 27.5565 28.5824 26.3725C27.9099 25.5601 27.3079 24.7072 26.7771 23.8144C26.3243 23.0528 26.6913 22.1269 27.597 21.7461C28.5027 21.3653 29.6039 21.674 30.0566 22.4356C30.2865 22.8221 30.532 23.1998 30.793 23.5687C31.4908 22.4676 32.0582 21.2924 32.4964 20.0417H25.6667V21.5833C25.6667 23.5971 24.1362 25.3103 22 25.9452V32.375C22 33.2265 22.8208 33.9167 23.8333 33.9167H38.5C39.5126 33.9167 40.3333 33.2265 40.3333 32.375V15.4167C40.3333 14.5652 39.5126 13.875 38.5 13.875H25.6667ZM11.4047 14.6458L12.8333 11.0418L14.2619 14.6458H11.4047ZM10.1825 17.7292H15.4842L16.5941 20.5291C16.9143 21.337 17.9525 21.7734 18.913 21.5042C19.8737 21.2349 20.3927 20.3619 20.0726 19.5542L14.5726 5.67915C14.0154 4.27362 11.6512 4.27362 11.0941 5.67915L5.59409 19.5542C5.2739 20.3619 5.79302 21.2349 6.75358 21.5042C7.71415 21.7734 8.75241 21.337 9.07258 20.5291L10.1825 17.7292Z" fill="#BDC8F1"/>
</g>
</g>
<defs>
<filter id="filter0_dd_653_2147" x="-4" y="0" width="52" height="45" filterUnits="userSpaceOnUse" color-interpolation-filters="sRGB">
<feFlood flood-opacity="0" result="BackgroundImageFix"/>
<feColorMatrix in="SourceAlpha" type="matrix" values="0 0 0 0 0 0 0 0 0 0 0 0 0 0 0 0 0 0 127 0" result="hardAlpha"/>
<feOffset dy="4"/>
<feGaussianBlur stdDeviation="2"/>
<feComposite in2="hardAlpha" operator="out"/>
<feColorMatrix type="matrix" values="0 0 0 0 0 0 0 0 0 0 0 0 0 0 0 0 0 0 0.25 0"/>
<feBlend mode="normal" in2="BackgroundImageFix" result="effect1_dropShadow_653_2147"/>
<feColorMatrix in="SourceAlpha" type="matrix" values="0 0 0 0 0 0 0 0 0 0 0 0 0 0 0 0 0 0 127 0" result="hardAlpha"/>
<feOffset dy="4"/>
<feGaussianBlur stdDeviation="2"/>
<feComposite in2="hardAlpha" operator="out"/>
<feColorMatrix type="matrix" values="0 0 0 0 0 0 0 0 0 0 0 0 0 0 0 0 0 0 0.25 0"/>
<feBlend mode="normal" in2="effect1_dropShadow_653_2147" result="effect2_dropShadow_653_2147"/>
<feBlend mode="normal" in="SourceGraphic" in2="effect2_dropShadow_653_2147" result="shape"/>
</filter>
<clipPath id="clip0_653_2147">
<rect width="44" height="37" fill="white"/>
</clipPath>
</defs>
</svg>
