<svg width="27" height="21" viewBox="0 0 27 21" fill="none" xmlns="http://www.w3.org/2000/svg">
<mask id="path-1-inside-1_60_1429" fill="white">
<path fill-rule="evenodd" clip-rule="evenodd" d="M20.3517 7.875C19.4564 7.875 18.7298 8.463 18.7298 9.1875C18.7298 9.912 19.4564 10.5 20.3517 10.5C21.247 10.5 21.9736 9.912 21.9736 9.1875C21.9736 8.463 21.247 7.875 20.3517 7.875ZM13.8642 17.0625C12.917 17.0625 12.0023 16.9732 11.1232 16.8217L7.30531 18.6789L7.35641 15.6345C4.42973 14.2104 2.51104 11.8558 2.51104 9.1875C2.51104 4.83853 7.59401 1.3125 13.8642 1.3125C20.1344 1.3125 25.2173 4.83853 25.2173 9.1875C25.2173 13.5371 20.1344 17.0625 13.8642 17.0625ZM13.8642 0C6.69873 0 0.88916 4.11403 0.88916 9.1875C0.88916 12.0875 2.79081 14.6698 5.7548 16.3531V21L11.4387 18.209C12.2253 18.314 13.0346 18.375 13.8642 18.375C21.0296 18.375 26.8392 14.2616 26.8392 9.1875C26.8392 4.11403 21.0296 0 13.8642 0ZM7.37667 7.875C6.4814 7.875 5.7548 8.463 5.7548 9.1875C5.7548 9.912 6.4814 10.5 7.37667 10.5C8.27195 10.5 8.99855 9.912 8.99855 9.1875C8.99855 8.463 8.27195 7.875 7.37667 7.875ZM13.8642 7.875C12.9689 7.875 12.2423 8.463 12.2423 9.1875C12.2423 9.912 12.9689 10.5 13.8642 10.5C14.7595 10.5 15.4861 9.912 15.4861 9.1875C15.4861 8.463 14.7595 7.875 13.8642 7.875Z"/>
</mask>
<path fill-rule="evenodd" clip-rule="evenodd" d="M20.3517 7.875C19.4564 7.875 18.7298 8.463 18.7298 9.1875C18.7298 9.912 19.4564 10.5 20.3517 10.5C21.247 10.5 21.9736 9.912 21.9736 9.1875C21.9736 8.463 21.247 7.875 20.3517 7.875ZM13.8642 17.0625C12.917 17.0625 12.0023 16.9732 11.1232 16.8217L7.30531 18.6789L7.35641 15.6345C4.42973 14.2104 2.51104 11.8558 2.51104 9.1875C2.51104 4.83853 7.59401 1.3125 13.8642 1.3125C20.1344 1.3125 25.2173 4.83853 25.2173 9.1875C25.2173 13.5371 20.1344 17.0625 13.8642 17.0625ZM13.8642 0C6.69873 0 0.88916 4.11403 0.88916 9.1875C0.88916 12.0875 2.79081 14.6698 5.7548 16.3531V21L11.4387 18.209C12.2253 18.314 13.0346 18.375 13.8642 18.375C21.0296 18.375 26.8392 14.2616 26.8392 9.1875C26.8392 4.11403 21.0296 0 13.8642 0ZM7.37667 7.875C6.4814 7.875 5.7548 8.463 5.7548 9.1875C5.7548 9.912 6.4814 10.5 7.37667 10.5C8.27195 10.5 8.99855 9.912 8.99855 9.1875C8.99855 8.463 8.27195 7.875 7.37667 7.875ZM13.8642 7.875C12.9689 7.875 12.2423 8.463 12.2423 9.1875C12.2423 9.912 12.9689 10.5 13.8642 10.5C14.7595 10.5 15.4861 9.912 15.4861 9.1875C15.4861 8.463 14.7595 7.875 13.8642 7.875Z" fill="#3CA3CF"/>
<path d="M11.1232 16.8217L13.8423 1.05439L8.76101 0.178122L4.12423 2.43366L11.1232 16.8217ZM7.30531 18.6789L-8.69243 18.4104L-9.12972 44.4662L14.3043 33.0668L7.30531 18.6789ZM7.35641 15.6345L23.3542 15.903L23.5252 5.70838L14.3569 1.24727L7.35641 15.6345ZM5.7548 16.3531H21.7548V7.03952L13.6561 2.44018L5.7548 16.3531ZM5.7548 21H-10.2452V46.6816L12.8071 35.3619L5.7548 21ZM11.4387 18.209L13.5556 2.34964L8.74383 1.70734L4.38635 3.84705L11.4387 18.209ZM20.3517 -8.125C13.9495 -8.125 2.72982 -3.37061 2.72982 9.1875H34.7298C34.7298 14.4865 32.0319 18.4622 29.2701 20.6972C26.5382 22.9079 23.3333 23.875 20.3517 23.875V-8.125ZM2.72982 9.1875C2.72982 21.7456 13.9495 26.5 20.3517 26.5V-5.5C23.3333 -5.5 26.5382 -4.53294 29.2701 -2.32216C32.0319 -0.0872046 34.7298 3.8885 34.7298 9.1875H2.72982ZM20.3517 26.5C26.7539 26.5 37.9736 21.7456 37.9736 9.1875H5.97358C5.97358 3.8885 8.6715 -0.0872046 11.4333 -2.32216C14.1652 -4.53294 17.3701 -5.5 20.3517 -5.5V26.5ZM37.9736 9.1875C37.9736 -3.37061 26.7539 -8.125 20.3517 -8.125V23.875C17.3701 23.875 14.1652 22.9079 11.4333 20.6972C8.6715 18.4622 5.97358 14.4865 5.97358 9.1875H37.9736ZM13.8642 1.0625C13.8938 1.0625 13.9088 1.06392 13.907 1.06376C13.9049 1.06356 13.8841 1.0616 13.8423 1.05439L8.40414 32.5889C10.0801 32.8779 11.9085 33.0625 13.8642 33.0625V1.0625ZM4.12423 2.43366L0.306337 4.29086L14.3043 33.0668L18.1222 31.2096L4.12423 2.43366ZM23.3031 18.9473L23.3542 15.903L-8.64134 15.366L-8.69243 18.4104L23.3031 18.9473ZM14.3569 1.24727C14.7045 1.41637 15.5978 1.92461 16.5227 3.12805C17.5098 4.41254 18.511 6.50976 18.511 9.1875H-13.489C-13.489 20.2108 -5.734 27.0585 0.35587 30.0217L14.3569 1.24727ZM18.511 9.1875C18.511 13.7337 15.8369 16.1546 14.9556 16.7659C14.0137 17.4193 13.5785 17.3125 13.8642 17.3125V-14.6875C7.8797 -14.6875 1.76791 -13.0313 -3.28306 -9.52763C-8.27332 -6.0661 -13.489 0.292357 -13.489 9.1875H18.511ZM13.8642 17.3125C14.1499 17.3125 13.7147 17.4193 12.7727 16.7659C11.8915 16.1546 9.21734 13.7337 9.21734 9.1875H41.2173C41.2173 0.292357 36.0017 -6.0661 31.0114 -9.52763C25.9605 -13.0313 19.8487 -14.6875 13.8642 -14.6875V17.3125ZM9.21734 9.1875C9.21734 4.64208 11.8911 2.22089 12.7731 1.6091C13.7153 0.955544 14.1505 1.0625 13.8642 1.0625V33.0625C19.848 33.0625 25.9598 31.4068 31.0111 27.9031C36.0021 24.4412 41.2173 18.0825 41.2173 9.1875H9.21734ZM13.8642 -16C7.36088 -16 0.797687 -14.1581 -4.5567 -10.3666C-9.87166 -6.60301 -15.1108 0.0790686 -15.1108 9.1875H16.8892C16.8892 13.2225 14.5548 15.3108 13.9359 15.749C13.2777 16.2151 13.202 16 13.8642 16V-16ZM-15.1108 9.1875C-15.1108 19.6748 -8.29077 26.7766 -2.14652 30.266L13.6561 2.44018C13.8724 2.56301 16.8892 4.50016 16.8892 9.1875H-15.1108ZM-10.2452 16.3531V21H21.7548V16.3531H-10.2452ZM12.8071 35.3619L18.491 32.5709L4.38635 3.84705L-1.29752 6.63808L12.8071 35.3619ZM9.3217 34.0683C10.7289 34.2562 12.2492 34.375 13.8642 34.375V2.375C13.82 2.375 13.7216 2.3718 13.5556 2.34964L9.3217 34.0683ZM13.8642 34.375C20.3669 34.375 26.9301 32.5335 32.2848 28.742C37.6004 24.9782 42.8392 18.2959 42.8392 9.1875H10.8392C10.8392 5.15323 13.1732 3.0647 13.7927 2.62606C14.4512 2.15979 14.5269 2.375 13.8642 2.375V34.375ZM42.8392 9.1875C42.8392 0.0790686 37.6 -6.60301 32.2851 -10.3666C26.9307 -14.1581 20.3675 -16 13.8642 -16V16C14.5263 16 14.4507 16.2151 13.7924 15.749C13.1736 15.3108 10.8392 13.2225 10.8392 9.1875H42.8392ZM7.37667 -8.125C0.974488 -8.125 -10.2452 -3.37061 -10.2452 9.1875H21.7548C21.7548 14.4865 19.0569 18.4622 16.2951 20.6972C13.5632 22.9079 10.3583 23.875 7.37667 23.875V-8.125ZM-10.2452 9.1875C-10.2452 21.7456 0.974488 26.5 7.37667 26.5V-5.5C10.3583 -5.5 13.5632 -4.53294 16.2951 -2.32216C19.0569 -0.0872046 21.7548 3.8885 21.7548 9.1875H-10.2452ZM7.37667 26.5C13.7789 26.5 24.9986 21.7456 24.9986 9.1875H-7.00145C-7.00145 3.8885 -4.30353 -0.0872046 -1.54175 -2.32216C1.19014 -4.53294 4.39509 -5.5 7.37667 -5.5V26.5ZM24.9986 9.1875C24.9986 -3.37061 13.7789 -8.125 7.37667 -8.125V23.875C4.39509 23.875 1.19014 22.9079 -1.54175 20.6972C-4.30353 18.4622 -7.00145 14.4865 -7.00145 9.1875H24.9986ZM13.8642 -8.125C7.462 -8.125 -3.75769 -3.37061 -3.75769 9.1875H28.2423C28.2423 14.4865 25.5444 18.4622 22.7826 20.6972C20.0507 22.9079 16.8458 23.875 13.8642 23.875V-8.125ZM-3.75769 9.1875C-3.75769 21.7456 7.462 26.5 13.8642 26.5V-5.5C16.8458 -5.5 20.0507 -4.53294 22.7826 -2.32216C25.5444 -0.0872046 28.2423 3.8885 28.2423 9.1875H-3.75769ZM13.8642 26.5C20.2664 26.5 31.4861 21.7456 31.4861 9.1875H-0.513934C-0.513934 3.8885 2.18399 -0.0872046 4.94576 -2.32216C7.67765 -4.53294 10.8826 -5.5 13.8642 -5.5V26.5ZM31.4861 9.1875C31.4861 -3.37061 20.2664 -8.125 13.8642 -8.125V23.875C10.8826 23.875 7.67765 22.9079 4.94576 20.6972C2.18399 18.4622 -0.513934 14.4865 -0.513934 9.1875H31.4861Z" fill="#3CA3CF" mask="url(#path-1-inside-1_60_1429)"/>
</svg>
