<svg width="27" height="21" viewBox="0 0 27 21" fill="none" xmlns="http://www.w3.org/2000/svg">
<mask id="path-1-inside-1_516_46357" fill="white">
<path fill-rule="evenodd" clip-rule="evenodd" d="M20.4279 7.875C19.5326 7.875 18.806 8.463 18.806 9.1875C18.806 9.912 19.5326 10.5 20.4279 10.5C21.3231 10.5 22.0498 9.912 22.0498 9.1875C22.0498 8.463 21.3231 7.875 20.4279 7.875ZM13.9404 17.0625C12.9932 17.0625 12.0784 16.9732 11.1994 16.8217L7.38148 18.6789L7.43258 15.6345C4.5059 14.2104 2.58721 11.8558 2.58721 9.1875C2.58721 4.83853 7.67018 1.3125 13.9404 1.3125C20.2105 1.3125 25.2935 4.83853 25.2935 9.1875C25.2935 13.5371 20.2105 17.0625 13.9404 17.0625ZM13.9404 0C6.7749 0 0.965332 4.11403 0.965332 9.1875C0.965332 12.0875 2.86698 14.6698 5.83097 16.3531V21L11.5148 18.209C12.3015 18.314 13.1108 18.375 13.9404 18.375C21.1058 18.375 26.9154 14.2616 26.9154 9.1875C26.9154 4.11403 21.1058 0 13.9404 0ZM7.45285 7.875C6.55757 7.875 5.83097 8.463 5.83097 9.1875C5.83097 9.912 6.55757 10.5 7.45285 10.5C8.34812 10.5 9.07472 9.912 9.07472 9.1875C9.07472 8.463 8.34812 7.875 7.45285 7.875ZM13.9404 7.875C13.0451 7.875 12.3185 8.463 12.3185 9.1875C12.3185 9.912 13.0451 10.5 13.9404 10.5C14.8356 10.5 15.5622 9.912 15.5622 9.1875C15.5622 8.463 14.8356 7.875 13.9404 7.875Z"/>
</mask>
<path fill-rule="evenodd" clip-rule="evenodd" d="M20.4279 7.875C19.5326 7.875 18.806 8.463 18.806 9.1875C18.806 9.912 19.5326 10.5 20.4279 10.5C21.3231 10.5 22.0498 9.912 22.0498 9.1875C22.0498 8.463 21.3231 7.875 20.4279 7.875ZM13.9404 17.0625C12.9932 17.0625 12.0784 16.9732 11.1994 16.8217L7.38148 18.6789L7.43258 15.6345C4.5059 14.2104 2.58721 11.8558 2.58721 9.1875C2.58721 4.83853 7.67018 1.3125 13.9404 1.3125C20.2105 1.3125 25.2935 4.83853 25.2935 9.1875C25.2935 13.5371 20.2105 17.0625 13.9404 17.0625ZM13.9404 0C6.7749 0 0.965332 4.11403 0.965332 9.1875C0.965332 12.0875 2.86698 14.6698 5.83097 16.3531V21L11.5148 18.209C12.3015 18.314 13.1108 18.375 13.9404 18.375C21.1058 18.375 26.9154 14.2616 26.9154 9.1875C26.9154 4.11403 21.1058 0 13.9404 0ZM7.45285 7.875C6.55757 7.875 5.83097 8.463 5.83097 9.1875C5.83097 9.912 6.55757 10.5 7.45285 10.5C8.34812 10.5 9.07472 9.912 9.07472 9.1875C9.07472 8.463 8.34812 7.875 7.45285 7.875ZM13.9404 7.875C13.0451 7.875 12.3185 8.463 12.3185 9.1875C12.3185 9.912 13.0451 10.5 13.9404 10.5C14.8356 10.5 15.5622 9.912 15.5622 9.1875C15.5622 8.463 14.8356 7.875 13.9404 7.875Z" fill="#3CA3CF"/>
<path d="M11.1994 16.8217L13.9184 1.05439L8.83718 0.178122L4.2004 2.43366L11.1994 16.8217ZM7.38148 18.6789L-8.61626 18.4104L-9.05355 44.4662L14.3805 33.0668L7.38148 18.6789ZM7.43258 15.6345L23.4303 15.903L23.6014 5.70838L14.4331 1.24727L7.43258 15.6345ZM5.83097 16.3531H21.831V7.03952L13.7323 2.44018L5.83097 16.3531ZM5.83097 21H-10.169V46.6816L12.8833 35.3619L5.83097 21ZM11.5148 18.209L13.6318 2.34964L8.82001 1.70734L4.46253 3.84705L11.5148 18.209ZM20.4279 -8.125C14.0257 -8.125 2.80599 -3.37061 2.80599 9.1875H34.806C34.806 14.4865 32.1081 18.4622 29.3463 20.6972C26.6144 22.9079 23.4095 23.875 20.4279 23.875V-8.125ZM2.80599 9.1875C2.80599 21.7456 14.0257 26.5 20.4279 26.5V-5.5C23.4095 -5.5 26.6144 -4.53294 29.3463 -2.32216C32.1081 -0.0872046 34.806 3.8885 34.806 9.1875H2.80599ZM20.4279 26.5C26.8301 26.5 38.0498 21.7456 38.0498 9.1875H6.04975C6.04975 3.8885 8.74767 -0.0872046 11.5094 -2.32216C14.2413 -4.53294 17.4463 -5.5 20.4279 -5.5V26.5ZM38.0498 9.1875C38.0498 -3.37061 26.8301 -8.125 20.4279 -8.125V23.875C17.4463 23.875 14.2413 22.9079 11.5094 20.6972C8.74767 18.4622 6.04975 14.4865 6.04975 9.1875H38.0498ZM13.9404 1.0625C13.9699 1.0625 13.985 1.06392 13.9832 1.06376C13.9811 1.06356 13.9602 1.0616 13.9184 1.05439L8.48031 32.5889C10.1563 32.8779 11.9846 33.0625 13.9404 33.0625V1.0625ZM4.2004 2.43366L0.382509 4.29086L14.3805 33.0668L18.1984 31.2096L4.2004 2.43366ZM23.3792 18.9473L23.4303 15.903L-8.56517 15.366L-8.61626 18.4104L23.3792 18.9473ZM14.4331 1.24727C14.7806 1.41637 15.674 1.92461 16.5989 3.12805C17.586 4.41254 18.5872 6.50976 18.5872 9.1875H-13.4128C-13.4128 20.2108 -5.65783 27.0585 0.432042 30.0217L14.4331 1.24727ZM18.5872 9.1875C18.5872 13.7337 15.913 16.1546 15.0318 16.7659C14.0899 17.4193 13.6547 17.3125 13.9404 17.3125V-14.6875C7.95587 -14.6875 1.84408 -13.0313 -3.20688 -9.52763C-8.19714 -6.0661 -13.4128 0.292357 -13.4128 9.1875H18.5872ZM13.9404 17.3125C14.2261 17.3125 13.7908 17.4193 12.8489 16.7659C11.9677 16.1546 9.29351 13.7337 9.29351 9.1875H41.2935C41.2935 0.292357 36.0779 -6.0661 31.0876 -9.52763C26.0366 -13.0313 19.9248 -14.6875 13.9404 -14.6875V17.3125ZM9.29351 9.1875C9.29351 4.64208 11.9672 2.22089 12.8493 1.6091C13.7915 0.955544 14.2267 1.0625 13.9404 1.0625V33.0625C19.9242 33.0625 26.036 31.4068 31.0872 27.9031C36.0783 24.4412 41.2935 18.0825 41.2935 9.1875H9.29351ZM13.9404 -16C7.43705 -16 0.873859 -14.1581 -4.48052 -10.3666C-9.79549 -6.60301 -15.0347 0.0790686 -15.0347 9.1875H16.9653C16.9653 13.2225 14.6309 15.3108 14.0121 15.749C13.3539 16.2151 13.2782 16 13.9404 16V-16ZM-15.0347 9.1875C-15.0347 19.6748 -8.2146 26.7766 -2.07035 30.266L13.7323 2.44018C13.9486 2.56301 16.9653 4.50016 16.9653 9.1875H-15.0347ZM-10.169 16.3531V21H21.831V16.3531H-10.169ZM12.8833 35.3619L18.5672 32.5709L4.46253 3.84705L-1.22135 6.63808L12.8833 35.3619ZM9.39787 34.0683C10.8051 34.2562 12.3254 34.375 13.9404 34.375V2.375C13.8962 2.375 13.7978 2.3718 13.6318 2.34964L9.39787 34.0683ZM13.9404 34.375C20.4431 34.375 27.0063 32.5335 32.3609 28.742C37.6766 24.9782 42.9154 18.2959 42.9154 9.1875H10.9154C10.9154 5.15323 13.2494 3.0647 13.8689 2.62606C14.5274 2.15979 14.6031 2.375 13.9404 2.375V34.375ZM42.9154 9.1875C42.9154 0.0790686 37.6762 -6.60301 32.3612 -10.3666C27.0069 -14.1581 20.4437 -16 13.9404 -16V16C14.6025 16 14.5268 16.2151 13.8686 15.749C13.2498 15.3108 10.9154 13.2225 10.9154 9.1875H42.9154ZM7.45285 -8.125C1.05066 -8.125 -10.169 -3.37061 -10.169 9.1875H21.831C21.831 14.4865 19.133 18.4622 16.3713 20.6972C13.6394 22.9079 10.4344 23.875 7.45285 23.875V-8.125ZM-10.169 9.1875C-10.169 21.7456 1.05066 26.5 7.45285 26.5V-5.5C10.4344 -5.5 13.6394 -4.53294 16.3713 -2.32216C19.133 -0.0872046 21.831 3.8885 21.831 9.1875H-10.169ZM7.45285 26.5C13.855 26.5 25.0747 21.7456 25.0747 9.1875H-6.92528C-6.92528 3.8885 -4.22736 -0.0872046 -1.46558 -2.32216C1.26631 -4.53294 4.47126 -5.5 7.45285 -5.5V26.5ZM25.0747 9.1875C25.0747 -3.37061 13.855 -8.125 7.45285 -8.125V23.875C4.47126 23.875 1.26631 22.9079 -1.46558 20.6972C-4.22736 18.4622 -6.92528 14.4865 -6.92528 9.1875H25.0747ZM13.9404 -8.125C7.53817 -8.125 -3.68152 -3.37061 -3.68152 9.1875H28.3185C28.3185 14.4865 25.6206 18.4622 22.8588 20.6972C20.1269 22.9079 16.9219 23.875 13.9404 23.875V-8.125ZM-3.68152 9.1875C-3.68152 21.7456 7.53817 26.5 13.9404 26.5V-5.5C16.9219 -5.5 20.1269 -4.53294 22.8588 -2.32216C25.6206 -0.0872046 28.3185 3.8885 28.3185 9.1875H-3.68152ZM13.9404 26.5C20.3425 26.5 31.5622 21.7456 31.5622 9.1875H-0.437762C-0.437762 3.8885 2.26016 -0.0872046 5.02194 -2.32216C7.75382 -4.53294 10.9588 -5.5 13.9404 -5.5V26.5ZM31.5622 9.1875C31.5622 -3.37061 20.3425 -8.125 13.9404 -8.125V23.875C10.9588 23.875 7.75382 22.9079 5.02194 20.6972C2.26016 18.4622 -0.437762 14.4865 -0.437762 9.1875H31.5622Z" fill="#3CA3CF" mask="url(#path-1-inside-1_516_46357)"/>
</svg>
