<svg width="27" height="21" viewBox="0 0 27 21" fill="none" xmlns="http://www.w3.org/2000/svg">
<mask id="path-1-inside-1_71_7658" fill="white">
<path fill-rule="evenodd" clip-rule="evenodd" d="M19.7632 7.875C18.867 7.875 18.1396 8.463 18.1396 9.1875C18.1396 9.912 18.867 10.5 19.7632 10.5C20.6594 10.5 21.3867 9.912 21.3867 9.1875C21.3867 8.463 20.6594 7.875 19.7632 7.875ZM13.2689 17.0625C12.3207 17.0625 11.405 16.9732 10.525 16.8217L6.70314 18.6789L6.75428 15.6345C3.82454 14.2104 1.90385 11.8558 1.90385 9.1875C1.90385 4.83853 6.99213 1.3125 13.2689 1.3125C19.5456 1.3125 24.6339 4.83853 24.6339 9.1875C24.6339 13.5371 19.5456 17.0625 13.2689 17.0625ZM13.2689 0C6.09592 0 0.280273 4.11403 0.280273 9.1875C0.280273 12.0875 2.18392 14.6698 5.151 16.3531V21L10.8408 18.209C11.6283 18.314 12.4384 18.375 13.2689 18.375C20.4418 18.375 26.2575 14.2616 26.2575 9.1875C26.2575 4.11403 20.4418 0 13.2689 0ZM6.77457 7.875C5.87836 7.875 5.151 8.463 5.151 9.1875C5.151 9.912 5.87836 10.5 6.77457 10.5C7.67079 10.5 8.39815 9.912 8.39815 9.1875C8.39815 8.463 7.67079 7.875 6.77457 7.875ZM13.2689 7.875C12.3727 7.875 11.6453 8.463 11.6453 9.1875C11.6453 9.912 12.3727 10.5 13.2689 10.5C14.1651 10.5 14.8924 9.912 14.8924 9.1875C14.8924 8.463 14.1651 7.875 13.2689 7.875Z"/>
</mask>
<path fill-rule="evenodd" clip-rule="evenodd" d="M19.7632 7.875C18.867 7.875 18.1396 8.463 18.1396 9.1875C18.1396 9.912 18.867 10.5 19.7632 10.5C20.6594 10.5 21.3867 9.912 21.3867 9.1875C21.3867 8.463 20.6594 7.875 19.7632 7.875ZM13.2689 17.0625C12.3207 17.0625 11.405 16.9732 10.525 16.8217L6.70314 18.6789L6.75428 15.6345C3.82454 14.2104 1.90385 11.8558 1.90385 9.1875C1.90385 4.83853 6.99213 1.3125 13.2689 1.3125C19.5456 1.3125 24.6339 4.83853 24.6339 9.1875C24.6339 13.5371 19.5456 17.0625 13.2689 17.0625ZM13.2689 0C6.09592 0 0.280273 4.11403 0.280273 9.1875C0.280273 12.0875 2.18392 14.6698 5.151 16.3531V21L10.8408 18.209C11.6283 18.314 12.4384 18.375 13.2689 18.375C20.4418 18.375 26.2575 14.2616 26.2575 9.1875C26.2575 4.11403 20.4418 0 13.2689 0ZM6.77457 7.875C5.87836 7.875 5.151 8.463 5.151 9.1875C5.151 9.912 5.87836 10.5 6.77457 10.5C7.67079 10.5 8.39815 9.912 8.39815 9.1875C8.39815 8.463 7.67079 7.875 6.77457 7.875ZM13.2689 7.875C12.3727 7.875 11.6453 8.463 11.6453 9.1875C11.6453 9.912 12.3727 10.5 13.2689 10.5C14.1651 10.5 14.8924 9.912 14.8924 9.1875C14.8924 8.463 14.1651 7.875 13.2689 7.875Z" fill="#3CA3CF"/>
<path d="M10.525 16.8217L13.2413 1.05391L8.16501 0.179414L3.53197 2.43078L10.525 16.8217ZM6.70314 18.6789L-9.2946 18.4101L-9.73215 44.4544L13.6962 33.0697L6.70314 18.6789ZM6.75428 15.6345L22.752 15.9033L22.9234 5.70384L13.7489 1.24439L6.75428 15.6345ZM5.151 16.3531H21.151V7.03471L13.0461 2.43664L5.151 16.3531ZM5.151 21H-10.849V46.6698L12.1974 35.3648L5.151 21ZM10.8408 18.209L12.9556 2.34935L8.14849 1.70835L3.79444 3.84414L10.8408 18.209ZM19.7632 -8.125C13.377 -8.125 2.1396 -3.38432 2.1396 9.1875H34.1396C34.1396 14.4933 31.4355 18.4699 28.674 20.7023C25.9423 22.9106 22.74 23.875 19.7632 23.875V-8.125ZM2.1396 9.1875C2.1396 21.7593 13.377 26.5 19.7632 26.5V-5.5C22.74 -5.5 25.9423 -4.53565 28.674 -2.32731C31.4355 -0.0949447 34.1396 3.88172 34.1396 9.1875H2.1396ZM19.7632 26.5C26.1493 26.5 37.3867 21.7593 37.3867 9.1875H5.38675C5.38675 3.88172 8.09085 -0.0949447 10.8523 -2.32731C13.584 -4.53565 16.7864 -5.5 19.7632 -5.5V26.5ZM37.3867 9.1875C37.3867 -3.38432 26.1493 -8.125 19.7632 -8.125V23.875C16.7864 23.875 13.584 22.9106 10.8523 20.7023C8.09085 18.4699 5.38675 14.4933 5.38675 9.1875H37.3867ZM13.2689 1.0625C13.2974 1.0625 13.3115 1.06387 13.3088 1.06362C13.3057 1.06334 13.284 1.06126 13.2413 1.05391L7.80872 32.5894C9.48485 32.8781 11.3132 33.0625 13.2689 33.0625V1.0625ZM3.53197 2.43078L-0.289922 4.28798L13.6962 33.0697L17.5181 31.2125L3.53197 2.43078ZM22.7009 18.9476L22.752 15.9033L-9.24346 15.3657L-9.2946 18.4101L22.7009 18.9476ZM13.7489 1.24439C14.0938 1.41201 14.9865 1.91873 15.9119 3.12164C16.8998 4.40577 17.9038 6.50516 17.9038 9.1875H-14.0962C-14.0962 20.2199 -6.32801 27.0656 -0.240334 30.0246L13.7489 1.24439ZM17.9038 9.1875C17.9038 13.7413 15.2228 16.1624 14.3455 16.7704C13.4063 17.4212 12.9764 17.3125 13.2689 17.3125V-14.6875C7.28464 -14.6875 1.17222 -13.0332 -3.88033 -9.53209C-8.87099 -6.0739 -14.0962 0.284715 -14.0962 9.1875H17.9038ZM13.2689 17.3125C13.5614 17.3125 13.1315 17.4212 12.1923 16.7704C11.3149 16.1624 8.6339 13.7413 8.6339 9.1875H40.6339C40.6339 0.284715 35.4087 -6.0739 30.4181 -9.53209C25.3655 -13.0332 19.2531 -14.6875 13.2689 -14.6875V17.3125ZM8.6339 9.1875C8.6339 4.63443 11.3145 2.21309 12.1926 1.60464C13.1321 0.953643 13.562 1.0625 13.2689 1.0625V33.0625C19.2525 33.0625 25.3649 31.4087 30.4177 27.9076C35.4092 24.449 40.6339 18.0902 40.6339 9.1875H8.6339ZM13.2689 -16C6.76545 -16 0.201196 -14.1601 -5.15517 -10.3711C-10.4711 -6.61082 -15.7197 0.0715341 -15.7197 9.1875H16.2803C16.2803 13.23 13.9395 15.3186 13.3246 15.7535C12.6693 16.2171 12.5993 16 13.2689 16V-16ZM-15.7197 9.1875C-15.7197 19.6833 -8.88783 26.7841 -2.74407 30.2696L13.0461 2.43664C13.2557 2.55554 16.2803 4.49165 16.2803 9.1875H-15.7197ZM-10.849 16.3531V21H21.151V16.3531H-10.849ZM12.1974 35.3648L17.8872 32.5738L3.79444 3.84414L-1.89538 6.63516L12.1974 35.3648ZM8.72602 34.0686C10.1335 34.2563 11.6538 34.375 13.2689 34.375V2.375C13.223 2.375 13.123 2.37168 12.9556 2.34935L8.72602 34.0686ZM13.2689 34.375C19.7717 34.375 26.336 32.5355 31.6926 28.7466C37.0092 24.986 42.2575 18.3034 42.2575 9.1875H10.2575C10.2575 5.14569 12.5979 3.05689 13.2135 2.6215C13.869 2.15779 13.939 2.375 13.2689 2.375V34.375ZM42.2575 9.1875C42.2575 0.0715341 37.0088 -6.61082 31.6929 -10.3711C26.3366 -14.1601 19.7723 -16 13.2689 -16V16C13.9384 16 13.8685 16.2171 13.2131 15.7535C12.5983 15.3186 10.2575 13.23 10.2575 9.1875H42.2575ZM6.77457 -8.125C0.38841 -8.125 -10.849 -3.38432 -10.849 9.1875H21.151C21.151 14.4933 18.4469 18.4699 15.6854 20.7023C12.9537 22.9106 9.7514 23.875 6.77457 23.875V-8.125ZM-10.849 9.1875C-10.849 21.7593 0.38841 26.5 6.77457 26.5V-5.5C9.7514 -5.5 12.9537 -4.53565 15.6854 -2.32731C18.4469 -0.0949447 21.151 3.88172 21.151 9.1875H-10.849ZM6.77457 26.5C13.1607 26.5 24.3981 21.7593 24.3981 9.1875H-7.60185C-7.60185 3.88172 -4.89775 -0.0949447 -2.13629 -2.32731C0.595446 -4.53565 3.79775 -5.5 6.77457 -5.5V26.5ZM24.3981 9.1875C24.3981 -3.38432 13.1607 -8.125 6.77457 -8.125V23.875C3.79775 23.875 0.595446 22.9106 -2.13629 20.7023C-4.89775 18.4699 -7.60185 14.4933 -7.60185 9.1875H24.3981ZM13.2689 -8.125C6.88271 -8.125 -4.3547 -3.38432 -4.3547 9.1875H27.6453C27.6453 14.4933 24.9412 18.4699 22.1797 20.7023C19.448 22.9106 16.2457 23.875 13.2689 23.875V-8.125ZM-4.3547 9.1875C-4.3547 21.7593 6.88271 26.5 13.2689 26.5V-5.5C16.2457 -5.5 19.448 -4.53565 22.1797 -2.32731C24.9412 -0.0949447 27.6453 3.88172 27.6453 9.1875H-4.3547ZM13.2689 26.5C19.655 26.5 30.8924 21.7593 30.8924 9.1875H-1.10755C-1.10755 3.88172 1.59655 -0.0949447 4.35801 -2.32731C7.08975 -4.53565 10.2921 -5.5 13.2689 -5.5V26.5ZM30.8924 9.1875C30.8924 -3.38432 19.655 -8.125 13.2689 -8.125V23.875C10.2921 23.875 7.08975 22.9106 4.35801 20.7023C1.59655 18.4699 -1.10755 14.4933 -1.10755 9.1875H30.8924Z" fill="#3CA3CF" mask="url(#path-1-inside-1_71_7658)"/>
</svg>
