<svg width="22" height="22" viewBox="0 0 22 22" fill="none" xmlns="http://www.w3.org/2000/svg">
<path fill-rule="evenodd" clip-rule="evenodd" d="M11.0001 3.3001C9.98892 3.3001 8.98764 3.49926 8.05343 3.88622C7.11923 4.27319 6.27039 4.84036 5.55538 5.55538C4.84036 6.27039 4.27319 7.11923 3.88622 8.05343C3.49926 8.98764 3.3001 9.98892 3.3001 11.0001C3.3001 12.0113 3.49926 13.0126 3.88622 13.9468C4.27319 14.881 4.84036 15.7298 5.55538 16.4448C6.27039 17.1598 7.11923 17.727 8.05343 18.114C8.98764 18.5009 9.98892 18.7001 11.0001 18.7001C13.0423 18.7001 15.0008 17.8888 16.4448 16.4448C17.8888 15.0008 18.7001 13.0423 18.7001 11.0001C18.7001 8.95793 17.8888 6.9994 16.4448 5.55538C15.0008 4.11135 13.0423 3.3001 11.0001 3.3001ZM1.1001 11.0001C1.1001 8.37445 2.14313 5.85635 3.99974 3.99974C5.85635 2.14313 8.37445 1.1001 11.0001 1.1001C13.6257 1.1001 16.1438 2.14313 18.0005 3.99974C19.8571 5.85635 20.9001 8.37445 20.9001 11.0001C20.9001 13.6257 19.8571 16.1438 18.0005 18.0005C16.1438 19.8571 13.6257 20.9001 11.0001 20.9001C8.37445 20.9001 5.85635 19.8571 3.99974 18.0005C2.14313 16.1438 1.1001 13.6257 1.1001 11.0001ZM16.5001 11.076C16.5001 11.3677 16.3842 11.6475 16.1779 11.8538C15.9716 12.0601 15.6918 12.176 15.4001 12.176H12.176V15.4001C12.176 15.6918 12.0601 15.9716 11.8538 16.1779C11.6475 16.3842 11.3677 16.5001 11.076 16.5001C10.7843 16.5001 10.5045 16.3842 10.2982 16.1779C10.0919 15.9716 9.976 15.6918 9.976 15.4001V12.176H6.6001C6.30836 12.176 6.02857 12.0601 5.82228 11.8538C5.61599 11.6475 5.5001 11.3677 5.5001 11.076C5.5001 10.7843 5.61599 10.5045 5.82228 10.2982C6.02857 10.0919 6.30836 9.976 6.6001 9.976H9.976V6.6001C9.976 6.30836 10.0919 6.02857 10.2982 5.82228C10.5045 5.61599 10.7843 5.5001 11.076 5.5001C11.3677 5.5001 11.6475 5.61599 11.8538 5.82228C12.0601 6.02857 12.176 6.30836 12.176 6.6001V9.976H15.4001C15.6918 9.976 15.9716 10.0919 16.1779 10.2982C16.3842 10.5045 16.5001 10.7843 16.5001 11.076Z" fill="black"/>
</svg>
