<svg width="30" height="29" viewBox="0 0 30 29" fill="none" xmlns="http://www.w3.org/2000/svg">
<path d="M28.9999 14.5131C29.0042 17.403 28.0442 20.2173 26.2623 22.5386C26.2136 22.6041 26.1628 22.6675 26.1098 22.7309C26.0569 22.7943 26.0484 22.8086 26.0188 22.8434C25.915 22.9722 25.8071 23.099 25.6991 23.2238C25.5911 23.3486 25.4874 23.4692 25.3688 23.5879C25.2947 23.6676 25.2206 23.7474 25.1422 23.8251L24.9072 24.0562L24.668 24.2832L24.5473 24.3896C23.0452 25.738 21.2544 26.7506 19.3018 27.3554C17.3493 27.9603 15.2828 28.1427 13.2491 27.8896C11.2154 27.6365 9.26426 26.9542 7.53414 25.891C5.80402 24.8279 4.33732 23.4099 3.23809 21.7378C2.13886 20.0657 1.43406 18.1804 1.17367 16.2157C0.913288 14.2509 1.10371 12.2549 1.73143 10.3692C2.35914 8.48356 3.40877 6.75444 4.80584 5.30455C6.20291 3.85466 7.91318 2.71954 9.8153 1.97973V1.97973C11.47 1.33608 13.2378 1.00691 15.0217 1.01028C15.1995 1.01028 15.3753 1.01028 15.5531 1.02255C16.4244 1.05181 17.2907 1.16138 18.1404 1.34979V1.34979C19.266 1.59842 20.3554 1.98037 21.3841 2.48695V2.48695C23.6775 3.61891 25.6024 5.34108 26.9464 7.4633C28.2903 9.58552 29.001 12.0252 28.9999 14.5131V14.5131Z" stroke="black" stroke-width="1.6" stroke-miterlimit="10"/>
<path d="M4.16846 18.9798L4.81846 18.3662C4.86081 18.4092 4.33784 18.8203 4.35901 18.8407L4.68931 18.5319" stroke="#BDC8F1" stroke-width="0.450589" stroke-linecap="round" stroke-linejoin="round"/>
<path d="M11.5093 16.1861C11.5686 16.2433 12.5679 15.1184 12.6081 15.1634C12.6484 15.2084 11.7104 15.9222 11.7909 16.002C12.0129 15.8163 12.2249 15.6197 12.4261 15.4129C12.4261 15.4129 11.8713 15.8895 11.901 15.9202C11.901 15.9202 12.3117 15.4763 12.3414 15.5111" stroke="#BDC8F1" stroke-width="0.450589" stroke-linecap="round" stroke-linejoin="round"/>
<path d="M16.4233 16.7362C16.5334 16.8466 17.6535 15.4109 17.7466 15.509C17.8398 15.6072 16.4509 16.726 16.4509 16.726C16.5737 16.8487 17.7847 15.462 17.7932 15.4722C17.9181 15.597 16.4445 16.6033 16.5715 16.7321C16.5991 16.7587 17.8144 15.5459 17.8292 15.5581C17.844 15.5704 16.7176 16.7607 16.7176 16.7607L17.933 15.6195C17.9626 15.6481 16.8023 16.7894 16.8743 16.8466C16.9463 16.9039 18.0049 15.7933 18.0049 15.7933C18.0049 15.7933 16.8383 16.8466 16.9505 16.9509C17.0628 17.0553 18.0092 15.8404 18.0685 15.9079L17.0903 17.0798C17.0903 17.0798 18.1235 16.0306 18.168 16.0756C18.168 16.0756 17.0882 17.0982 17.1665 17.1677C17.2448 17.2373 18.2378 16.1697 18.2378 16.1697L17.2491 17.2864C17.3189 17.3559 18.1637 16.276 18.2463 16.3578L17.3994 17.3355C17.4396 17.3743 18.2781 16.5173 18.2781 16.5173C18.2781 16.5173 17.8737 17.1309 17.897 17.1493C17.9203 17.1677 18.1404 16.9223 18.1404 16.9223" stroke="#BDC8F1" stroke-width="0.450589" stroke-linecap="round" stroke-linejoin="round"/>
<path d="M17.626 14.7686C17.626 14.7686 19.5315 12.6006 19.7305 12.8051L18.1278 14.5579C18.1278 14.5579 19.4193 13.1099 19.5463 13.2346C19.6734 13.3594 18.276 14.519 18.276 14.519C18.3331 14.5763 19.3918 13.478 19.3918 13.478C19.3918 13.478 18.4538 14.38 18.4962 14.4188L19.2711 13.6948C19.2711 13.6948 18.4814 14.3472 18.5343 14.3922C18.5872 14.4372 19.2182 13.7541 19.2182 13.7541L18.547 14.3922C18.5999 14.4454 19.1356 13.8114 19.1525 13.8277L18.6931 14.2961L19.0551 13.9566" stroke="#BDC8F1" stroke-width="0.450589" stroke-linecap="round" stroke-linejoin="round"/>
<path d="M19.4004 9.5757L20.7491 8.31787C20.7914 8.36082 19.5867 9.59207 19.5867 9.59207L20.6877 8.56944C20.747 8.6308 19.6502 9.61252 19.6502 9.61252C19.7349 9.69637 20.6072 8.54489 20.7089 8.63489L19.6905 9.62684C19.7243 9.6616 20.6072 8.63898 20.675 8.70647C20.675 8.70647 19.6778 9.59411 19.7624 9.67797C19.7836 9.70046 20.5353 8.90281 20.5628 8.93145L19.8323 9.77818C19.8725 9.815 20.2769 9.36913 20.2769 9.36913C20.1752 9.53337 20.0628 9.69118 19.9403 9.84159C19.9763 9.87636 20.2939 9.5123 20.2939 9.5123C20.2939 9.5123 19.9318 9.84568 19.9403 9.85386C19.9488 9.86204 20.26 9.48162 20.2981 9.52048C20.3362 9.55934 19.9509 9.89272 19.9509 9.89272C19.9509 9.89272 20.3129 9.5348 20.3235 9.54502C20.2246 9.67952 20.1388 9.82263 20.0673 9.97248C20.0822 9.9868 20.4527 9.59002 20.4633 9.60229C20.4738 9.61456 20.0694 9.97453 20.0694 9.97453C20.0694 9.97453 20.4146 9.5982 20.4421 9.62684C20.4696 9.65547 20.0949 9.94385 20.116 9.9643L20.4696 9.63502C20.4696 9.63502 20.1372 9.97657 20.1436 9.98476C20.1499 9.99294 20.5077 9.64524 20.5077 9.64524C20.5395 9.67592 20.2071 10.0543 20.2092 10.0543C20.2113 10.0543 20.5776 9.68819 20.5839 9.68819C20.5903 9.68819 20.2346 10.13 20.2494 10.1443C20.2642 10.1586 20.5882 9.76182 20.6221 9.79455C20.5044 9.94739 20.4003 10.1095 20.3108 10.2793C20.3341 10.3018 20.7025 9.8559 20.7343 9.88658C20.6154 10.0932 20.4794 10.2901 20.3278 10.4756C20.3616 10.5104 20.8147 10.0216 20.8147 10.0216C20.6795 10.1966 20.5332 10.3632 20.3765 10.5206C20.3765 10.5206 20.7999 10.1259 20.7999 10.13L20.3765 10.5738C20.4146 10.6106 20.783 10.1177 20.8232 10.1647L20.3595 10.6065C20.3786 10.6249 20.7957 10.1381 20.8274 10.1709L20.404 10.5799C20.404 10.5799 20.7766 10.1566 20.8274 10.1954C20.8782 10.2343 20.5268 10.627 20.548 10.6454C20.5691 10.6638 20.6792 10.5022 20.6898 10.5145L20.5543 10.6474C20.5543 10.6474 20.7025 10.5002 20.7067 10.5043" stroke="#BDC8F1" stroke-width="0.450589" stroke-linecap="round" stroke-linejoin="round"/>
<path d="M12.9912 14.6807L20.7658 7.43848C21.5323 8.19931 13.2029 14.5969 13.2029 14.5969C13.7005 15.0939 20.2513 7.05192 20.7531 7.55506C21.0199 7.82298 13.0357 14.3044 13.2982 14.5601C13.2982 14.5601 20.571 7.36485 20.7849 7.57755C21.2634 8.05205 13.5481 14.5969 13.5692 14.6173L20.8124 7.86798L13.7979 14.6173C13.8699 14.6889 20.2979 7.643 20.7701 8.11546L13.764 14.6603C14.323 15.2104 20.8251 8.07455 20.8251 8.07455C20.8251 8.07455 13.5057 14.3228 13.8593 14.6746C14.1621 14.9793 20.2725 7.72072 20.7743 8.22385C21.1978 8.65949 13.3829 14.1551 14.0202 14.7809C14.0202 14.7809 18.71 9.68417 19.0847 10.0585C19.1821 10.1566 14.1959 14.9262 14.1959 14.9262C14.1959 14.9262 18.5363 9.94801 19.017 10.4266C19.0403 10.4491 14.2171 14.9384 14.2171 14.9384C14.4288 15.143 18.7311 10.1771 19.0149 10.4614C19.0276 10.4736 14.2468 14.9302 14.2468 14.9302C14.2468 14.9302 18.8709 10.3448 19.0127 10.4859C19.0127 10.4859 14.1642 14.92 14.234 14.9855C14.3463 15.1021 18.7078 10.1996 19.0276 10.5207C19.3473 10.8418 14.1134 14.8341 14.3696 15.0959C14.4606 15.1859 18.945 10.6107 19.0572 10.7232C19.2329 10.8991 14.4119 15.2432 14.4331 15.2657C14.5665 15.3986 18.9577 10.5616 19.2118 10.807C19.4658 11.0524 14.2933 15.2105 14.4733 15.3884C14.4733 15.3884 18.9831 10.5329 19.3176 10.8684C19.307 10.8684 14.0498 15.0059 14.4733 15.4252L19.343 10.8929C19.739 11.2897 14.359 15.3536 14.4924 15.4886C14.4924 15.4886 19.0487 10.5064 19.4277 10.8847L14.5665 15.7136L19.5992 11.0095C19.6881 11.0974 14.5051 15.7749 14.5622 15.8322L19.6649 11.0729C20.1349 11.5454 14.5834 15.822 14.5834 15.822C15.081 16.3231 19.703 11.0565 19.703 11.0565L14.6088 15.8997C14.8205 16.1042 19.4425 10.7866 19.7559 11.0995C19.7559 11.0995 14.4225 15.7279 14.6342 15.9406C14.6342 15.9406 19.5166 10.9113 19.7601 11.1568L14.6427 16.0101C14.6427 16.0101 19.3134 10.7109 19.8025 11.1977C19.8342 11.2283 14.685 16.0286 14.685 16.0286L19.8385 11.2181C20.0269 11.4083 14.3336 15.64 14.7316 16.0306C15.1551 16.4601 19.8745 11.2324 19.8745 11.2324C19.8745 11.2324 14.5008 15.8772 14.7337 16.1104L19.9083 11.2836C19.9083 11.2836 14.306 15.6522 14.8269 16.1697C14.8269 16.1697 19.4679 10.895 19.957 11.3838C20.4461 11.8726 14.992 16.1901 14.992 16.1901C15.46 16.6585 19.9676 11.5494 19.9676 11.5494C19.9676 11.5494 14.7951 15.8731 15.1826 16.2535C15.1826 16.2535 19.7495 11.4942 20.0079 11.754C20.4927 12.2366 15.2525 16.3415 15.2525 16.3415C15.515 16.6053 19.9105 11.8767 19.9676 11.9442C20.4419 12.4166 15.3731 16.3885 15.3731 16.3885C15.4896 16.5051 19.8194 11.9605 19.9634 12.1058L15.4621 16.4376C15.7691 16.7444 19.7517 12.1201 19.9083 12.2837C20.3064 12.6805 15.3329 16.3088 15.5446 16.5174C15.7564 16.726 19.4214 12.0628 19.8533 12.4944C19.8766 12.5189 15.6442 16.5726 15.6442 16.5726C15.6442 16.5726 19.5548 12.5803 19.7305 12.7561C19.7305 12.7561 15.352 16.3456 15.7479 16.7423L17.4417 15.1552C17.4777 15.192 15.7225 16.7669 15.7479 16.7914L17.4819 15.1736C17.5391 15.2309 15.8707 16.9919 15.8707 16.9919C15.8707 16.9919 17.5815 15.3291 17.6153 15.3557C17.6153 15.3557 15.7246 17.0144 15.9088 17.1964C15.9406 17.2271 16.256 16.8732 16.256 16.8732C16.2899 16.908 15.9067 17.3109 15.9067 17.3109L16.2264 17.0512L15.9554 17.4602C15.9554 17.4602 16.2095 17.178 16.2328 17.2005C16.256 17.223 15.9363 17.6729 15.9723 17.7077C15.9723 17.7077 16.2518 17.405 16.273 17.4275C16.2942 17.45 16.0845 17.8775 16.0972 17.8897C16.1939 17.7875 16.2972 17.6911 16.4064 17.6014C16.4233 17.6177 16.1565 17.9961 16.165 18.0104C16.1735 18.0247 16.4741 17.6954 16.4889 17.7098C16.5038 17.7241 16.1671 17.992 16.1841 18.0022C16.201 18.0125 16.4911 17.7159 16.4911 17.7159C16.4911 17.7159 16.1671 18.0084 16.1883 18.039C16.2095 18.0697 16.5398 17.7118 16.5398 17.7118C16.4396 17.8285 16.3322 17.9392 16.2179 18.0431C16.2497 18.0759 16.5101 17.7138 16.5398 17.7425C16.5694 17.7711 16.3069 18.129 16.3407 18.1638C16.3746 18.1986 16.6329 17.8427 16.6583 17.8672L16.4466 18.2313L16.7367 17.9593C16.7642 17.9859 16.5122 18.2824 16.5249 18.2886C16.6475 18.19 16.7621 18.0827 16.8679 17.9675C16.8828 17.9818 16.5207 18.3029 16.5313 18.3131C16.5419 18.3233 16.8806 17.9859 16.8806 17.9859C16.8806 17.9859 16.5906 18.442 16.6139 18.4583L16.9738 18.1229C17.0077 18.1577 16.6117 18.5319 16.6117 18.5319C16.6456 18.5667 16.9823 18.1372 17.0077 18.1638C16.9155 18.3437 16.813 18.5185 16.7007 18.6874L17.158 18.2783L16.8341 18.8592L17.3147 18.4113C17.2289 18.5795 17.1283 18.7403 17.014 18.8919L17.3591 18.5708C17.3591 18.5708 17.0775 18.9021 17.1072 18.9328C17.1368 18.9635 17.3994 18.6199 17.4205 18.6403C17.4417 18.6608 17.0924 18.9471 17.122 18.9778C17.1517 19.0085 17.4184 18.6997 17.4184 18.6997C17.4184 18.6997 17.1432 18.9492 17.1495 18.9553L17.393 18.7283L17.2787 19.0085L17.4036 18.8899" stroke="#BDC8F1" stroke-width="0.450589" stroke-linecap="round" stroke-linejoin="round"/>
<path d="M20.4971 6.58328L20.7363 6.36035C20.6611 6.44119 20.5905 6.52585 20.5246 6.61396L20.7787 6.37467C20.7787 6.37467 20.5119 6.6201 20.5331 6.63646L20.8041 6.38285C20.7486 6.49804 20.7039 6.61783 20.6707 6.74077C20.694 6.76327 20.9459 6.46671 20.9544 6.47489L20.8528 6.88394C20.8528 6.88394 21.1111 6.59351 21.1365 6.6201L20.9523 6.94734C20.9713 6.96575 21.2254 6.69373 21.2254 6.69373C21.2254 6.69373 20.9819 6.93711 21.0137 6.95961L21.2487 6.73463C21.2741 6.75918 21.1005 7.05369 21.1005 7.05369C21.1005 7.05369 21.2889 6.86144 21.2974 6.86962L21.2487 7.1355L21.3757 7.01892" stroke="#BDC8F1" stroke-width="0.450589" stroke-linecap="round" stroke-linejoin="round"/>
<path d="M19.6162 5.13767C19.6162 5.14789 20.063 4.69794 20.0757 4.71021C20.0884 4.72248 20.01 4.98427 20.0206 5.00472C20.0569 4.96485 20.0966 4.92791 20.1392 4.89428" stroke="#BDC8F1" stroke-width="0.450589" stroke-linecap="round" stroke-linejoin="round"/>
<path d="M20.1284 4.12706C20.1581 4.15569 20.6323 3.59324 20.6641 3.62801C20.6641 3.62801 20.2406 4.18637 20.2766 4.22727C20.4321 4.09993 20.5792 3.96331 20.717 3.81822L20.4291 4.3868C20.5328 4.27771 20.6431 4.17459 20.7594 4.07797C20.6509 4.20138 20.5505 4.33116 20.4587 4.46657L20.7657 4.18023L20.5349 4.58928L20.8843 4.26204L20.5836 4.69359C20.609 4.71609 20.9309 4.33976 20.9478 4.35408C20.9647 4.3684 20.7128 4.84494 20.7128 4.84494C20.7488 4.87971 21.0833 4.50134 21.0833 4.50134L20.7107 4.88176C20.7445 4.91448 21.1045 4.51565 21.1045 4.51565C21.1362 4.54633 20.7805 4.92471 20.7805 4.92471L21.204 4.53611C21.2442 4.57497 20.8779 4.96766 20.9182 5.00652C21.0564 4.89311 21.1872 4.77152 21.3099 4.64246L20.916 5.06583C20.952 5.10264 21.3141 4.63837 21.3395 4.667C21.3649 4.69564 20.9351 5.07605 20.9626 5.10469L21.3586 4.73654C21.3924 4.77336 21.0748 5.17627 21.0748 5.17627C21.1937 5.04831 21.3225 4.92933 21.4602 4.8204C21.4983 4.85721 21.1786 5.29081 21.1828 5.2949L21.5787 4.92471C21.471 5.06192 21.372 5.20535 21.2823 5.35421C21.2823 5.35421 21.6465 5.0147 21.6465 5.0147C21.6888 5.05765 21.3353 5.5526 21.3353 5.5526C21.3353 5.5526 21.7016 5.14355 21.7375 5.17627C21.6581 5.33758 21.5874 5.50279 21.5258 5.67122C21.659 5.55891 21.7862 5.44014 21.9069 5.31535C21.8873 5.44586 21.8562 5.5745 21.8138 5.69986C21.8138 5.69986 21.9683 5.5301 21.981 5.54442C21.9937 5.55874 21.7989 5.71417 21.8159 5.73054L22.0276 5.54237C22.0276 5.54237 21.8646 5.70395 21.8667 5.70395C21.8688 5.70395 22.0234 5.55464 22.0255 5.55669C21.9756 5.61582 21.9211 5.6712 21.8625 5.72236L22.0297 5.56692C22.0297 5.56692 22.0911 5.71827 22.0932 5.71827" stroke="#BDC8F1" stroke-width="0.450589" stroke-linecap="round" stroke-linejoin="round"/>
<path d="M5.79248 11.8564C6.47213 12.5374 13.7534 2.91861 14.5368 3.70194L5.9301 11.8952C6.77701 12.7461 14.5495 3.56695 14.6998 3.71421C14.6998 3.71421 5.91952 11.9566 6.03597 12.0752C6.35779 12.3984 14.9772 3.73671 14.9772 3.73671C15.6082 4.37074 6.06773 12.0916 6.06773 12.0916C6.66268 12.6868 14.2933 3.04132 15.0047 3.75716L6.18841 12.2675C6.18841 12.2675 15.2334 3.67126 15.3202 3.75716L6.29216 12.4761C6.9104 13.0897 15.5531 3.66103 15.6442 3.75103L6.40014 12.5988C6.79183 12.9894 15.9046 3.73057 15.9046 3.73057C16.129 3.96169 6.49118 12.7931 6.49118 12.7931L16.2306 3.70194C16.5948 4.066 6.52294 12.7951 6.52294 12.7951L16.2624 3.70194L6.55682 12.8197C6.92099 13.1858 16.3513 3.68353 16.3513 3.68353C17.3104 4.64071 6.57799 12.8872 6.57799 12.8872C6.66056 12.9608 16.2095 3.34811 16.4911 3.6324C16.4911 3.6324 6.40437 12.7358 6.61398 12.9465C7.43337 13.7646 15.9173 2.90634 16.6223 3.61195L6.62457 12.9874L16.7367 3.55264C17.2025 4.01691 6.65633 13.0549 6.76643 13.1653C7.4863 13.8771 17.2109 3.27244 17.2914 3.34811C17.2914 3.34811 6.4933 12.8013 6.88923 13.2062L17.628 3.18449C18.5109 4.066 6.77701 13.0958 6.94004 13.2594C7.93516 14.2596 17.8609 3.08018 17.8609 3.08018C17.9118 3.12927 6.98874 13.3801 6.98874 13.3801C6.98874 13.3801 17.6132 2.47683 18.1256 2.98815L7.12848 13.4353C7.12848 13.4353 18.0854 2.45433 18.4792 2.84702C18.5681 2.93906 7.14754 13.5253 7.14754 13.5253C7.38467 13.7646 18.4813 2.54228 18.6951 2.75499L7.16871 13.5192C7.16871 13.5192 17.6238 1.7344 18.674 2.78362C18.9873 3.09654 6.3218 12.6499 7.22799 13.556L18.8306 2.73453C19.9083 3.81238 7.35715 13.5744 7.38044 13.6051C7.44184 13.6664 19.0868 2.68545 19.0868 2.68545C19.4722 3.072 7.25128 13.4578 7.4863 13.6992L19.3049 2.67727C19.3049 2.67727 7.44819 13.6112 7.56252 13.7217C7.56252 13.7217 18.4008 1.74872 19.3663 2.71408C19.3663 2.71408 7.60063 13.6521 7.63027 13.6807L19.3536 2.74885L7.70861 13.7544C8.87311 14.9202 19.4785 2.77339 19.4785 2.77339L7.81236 13.8055C7.81236 13.8055 19.343 2.51365 19.6183 2.79385C19.83 3.01473 7.83988 13.7891 7.83988 13.7891C7.83988 13.7891 19.2499 2.42775 19.6204 2.79998L8.09819 13.8648L19.8681 2.88793C20.4207 3.44219 8.28028 13.9323 8.28028 13.9323L20.046 2.95338C20.5753 3.4831 7.67474 13.2533 8.37979 13.9589C8.37979 13.9589 19.6162 2.54637 20.0968 3.02905C20.5774 3.51173 8.21676 13.5908 8.6021 13.9834C9.49136 14.8731 19.6881 2.50547 20.2767 3.09245C20.9945 3.81034 8.17441 13.5969 8.58305 14.0059L20.2535 3.11086C20.2535 3.11086 8.07914 13.4537 8.65292 14.0284C8.80536 14.188 20.3233 3.14359 20.3233 3.14359C21.3925 4.21325 8.68891 14.0203 8.68891 14.0203L20.3339 3.16813L8.73761 14.0325C8.73761 14.0325 20.3403 3.13336 20.3826 3.17222C20.3826 3.17222 8.46871 13.6644 8.94933 14.145C8.94933 14.145 20.3085 3.10063 20.5393 3.33175C20.5393 3.33175 8.9324 14.0878 9.01709 14.1716C9.91058 15.0633 20.1476 2.98815 20.5605 3.40129C20.5605 3.40129 8.86464 13.8873 9.21188 14.2411C9.99739 15.0265 20.6452 3.57513 20.6452 3.57513C20.6452 3.57513 8.59152 13.4435 9.44054 14.2923L19.9549 4.47505C19.9549 4.47505 9.05096 13.9834 9.42996 14.3639L19.9782 4.52413C19.9782 4.52413 9.1166 13.9548 9.60357 14.4436C9.72637 14.5684 19.0911 3.72853 20.0565 4.69389C20.3233 4.95977 8.99803 13.8239 9.68191 14.4988L19.4277 5.40359C19.4277 5.40359 9.48712 14.3925 9.71579 14.6134C9.71579 14.6134 18.3966 4.65707 19.3557 5.61425L9.8153 14.8118C9.8153 14.8118 18.8645 5.47722 19.3261 5.93945C20.1349 6.74733 9.37491 14.7504 9.77719 15.1533L19.4065 6.17056C19.7665 6.52439 9.0679 14.4743 9.83647 15.2433C9.86823 15.276 19.2118 5.73492 19.6056 6.1317C19.9994 6.52848 9.84706 15.4151 9.84706 15.4151C9.84706 15.4151 19.8639 6.02126 19.8893 6.04785C20.1158 6.27283 9.43842 15.1002 9.84494 15.5051C9.84494 15.5051 19.4637 5.41996 20.0396 5.99467L9.864 15.5153L20.0714 5.99467C20.0714 5.99467 9.18012 15.0061 9.89576 15.7219C10.6813 16.5052 20.2365 6.07444 20.2365 6.07444L9.90846 15.7219C10.9099 16.7241 20.2471 6.07648 20.2471 6.07648C21.1766 7.00707 9.60357 15.5583 9.97198 15.9305L20.4631 6.14398C20.4631 6.14398 9.8767 15.9223 9.99527 16.043C9.99527 16.043 20.1201 5.81674 20.5287 6.22579C20.5287 6.22579 9.28598 15.5112 10.0313 16.2475C10.984 17.2006 19.7178 5.32587 20.6917 6.30146C20.6917 6.30146 9.74755 15.9694 10.1054 16.3232C10.1054 16.3232 20.389 6.63279 20.4398 6.68392C21.0623 7.30773 9.13142 15.4335 10.1646 16.4664L20.5054 6.82505C20.6367 6.95799 10.1858 16.6423 10.2388 16.6934C11.2826 17.7385 20.137 6.53667 20.6134 7.01526L10.2917 16.9511L20.7171 7.2341C20.8929 7.41204 9.66286 16.4378 10.3785 17.1454L12.7795 14.9059C12.7795 14.9059 10.1964 17.1045 10.4293 17.3356L11.3715 16.4582C11.3715 16.4582 10.4251 17.4317 10.5246 17.5197C10.5648 17.5626 11.3419 16.6198 11.4138 16.6914C11.4138 16.6914 10.4844 17.5504 10.5309 17.5954C10.5309 17.5954 11.416 16.7773 11.4181 16.7773C11.4604 16.8202 10.6177 17.7447 10.6241 17.7488L11.4371 16.99C11.5028 17.0554 10.6262 17.8347 10.6262 17.8347C10.6262 17.8347 11.3694 16.9838 11.4498 17.0656L10.7088 17.9533L11.3821 17.2968L10.8866 17.8694C11.0189 17.759 11.1447 17.6416 11.2635 17.5176" stroke="#BDC8F1" stroke-width="0.450589" stroke-linecap="round" stroke-linejoin="round"/>
<path d="M3.93994 11.7725L11.5727 4.65293C11.9326 5.01085 4.02675 11.795 4.02675 11.795C4.02675 11.795 10.9333 3.84915 11.7125 4.63657C11.7125 4.63657 3.66681 11.5577 4.09027 11.9995C4.62594 12.5354 12.2037 4.43205 12.2037 4.43205C12.4027 4.63657 4.0818 12.2347 4.11779 12.2736L12.7351 4.22957L4.1432 12.3124C4.1432 12.3124 12.4683 3.82665 12.841 4.19889C13.6603 5.01699 4.1305 12.4658 4.1305 12.4658C4.69369 13.0283 13.0929 4.10685 13.0929 4.10685C13.2792 4.29297 3.9103 12.3492 4.16649 12.6049C4.16649 12.6049 12.8579 3.41146 13.419 3.97391C13.98 4.53635 3.57577 12.2367 4.15802 12.8217C5.00493 13.6705 13.7556 3.8696 13.7556 3.8696C13.7556 3.8696 4.12838 12.9874 4.2046 13.063C4.38669 13.2451 13.6243 3.04127 14.2595 3.68553C14.2595 3.68553 4.01828 13.0528 4.22366 13.2594C4.59206 13.6255 14.4734 3.67735 14.4861 3.68553C14.7423 3.93914 3.54401 12.6499 4.23636 13.3432L5.71845 11.9565C5.7862 12.024 4.23636 13.4639 4.23636 13.4639L5.67399 12.1222C5.74386 12.1917 4.17708 13.695 4.20884 13.7277C4.20884 13.7277 5.64435 12.3779 5.6507 12.384C5.65705 12.3901 4.19825 13.7993 4.2173 13.8157C4.23636 13.832 5.57448 12.431 5.63588 12.4924C5.63588 12.4924 4.16861 13.9057 4.22789 13.965C4.24059 13.9773 5.62317 12.6622 5.62317 12.6622C5.72692 12.7644 4.21519 14.1204 4.28082 14.1879C4.28082 14.1879 5.55119 12.7358 5.69093 12.8749C5.73962 12.924 4.24906 14.237 4.24906 14.237L5.66552 12.9178L4.28929 14.284C4.41845 14.4129 5.65282 13.0099 5.65282 13.0119L4.29141 14.4661C4.41209 14.5888 5.66975 13.063 5.73115 13.1223C5.79256 13.1817 4.28929 14.4783 4.28929 14.4783L5.71845 13.1448C5.71845 13.1448 4.23636 14.6522 4.25542 14.6829C4.25542 14.6829 5.60835 13.1837 5.73751 13.3064L4.28929 14.7238C4.31258 14.7463 5.77138 13.3494 5.77138 13.3494C5.77138 13.3494 4.27659 14.8915 4.31893 14.9324C4.31893 14.9324 5.80102 13.4578 5.84337 13.5007C5.88572 13.5437 4.31046 15.1103 4.31046 15.1103C4.46291 15.2637 5.8836 13.5764 5.91959 13.6112C6.03604 13.7277 4.22577 15.1083 4.35281 15.2474C4.38245 15.276 6.0064 13.5621 6.0805 13.6357C6.0805 13.6357 4.18978 15.3537 4.33799 15.503C4.33799 15.503 6.24353 13.5927 6.31764 13.6623C6.41927 13.7646 4.34222 15.5173 4.36975 15.5439C4.39727 15.5705 6.36845 13.6562 6.38116 13.6684L4.42903 15.6912C4.42903 15.6912 6.38539 13.4619 6.595 13.6705C6.69028 13.7666 4.42691 15.7934 4.42691 15.7934C4.42691 15.7934 6.66699 13.6439 6.69028 13.6664C6.8766 13.8525 4.23001 15.5603 4.44597 15.7771C4.50525 15.8343 6.71992 13.6562 6.71992 13.6562L4.7445 15.7709L6.86178 13.8034L4.7191 15.8057L6.83637 13.83L4.97105 15.7709C5.12773 15.9264 6.73474 13.7707 6.91894 13.9548C6.95494 13.9936 5.09597 15.681 5.12561 15.7096L6.98458 13.9834C6.98458 13.9834 5.15737 15.5214 5.3077 15.6625L7.00152 14.0836C7.07562 14.1572 5.81373 15.4867 5.81373 15.4867C5.86666 15.5398 7.04598 14.3372 7.04598 14.3372L6.13555 15.3292C6.15673 15.3496 7.06715 14.4599 7.06715 14.4599L6.6564 15.0203L6.91048 14.7851" stroke="#BDC8F1" stroke-width="0.450589" stroke-linecap="round" stroke-linejoin="round"/>
<path d="M4.85243 5.26219L5.48761 4.67112L4.56448 5.56489C4.58142 5.57921 5.55536 4.64044 5.55536 4.64044C5.55536 4.64044 3.50584 6.41572 3.70275 6.60388C3.89966 6.79205 5.75862 4.41341 5.90048 4.55863C5.90048 4.55863 2.9977 7.05793 3.22848 7.28904C3.22848 7.28904 6.15032 4.2907 6.29006 4.42569C6.59283 4.72838 2.95747 7.65719 2.98076 7.67969C3.00405 7.70219 6.31335 4.03913 6.58012 4.31524C6.91465 4.64044 2.58271 8.34849 2.58271 8.34849C2.84525 8.61232 7.02899 4.20071 7.02899 4.20071C7.39316 4.57499 2.19313 8.2769 2.47897 8.56733L7.21742 4.14753C7.71286 4.64453 2.32864 8.85162 2.32864 8.85162L7.44185 4.07186C7.44185 4.07186 2.09151 9.09705 2.19313 9.19318C2.38581 9.39157 7.80602 3.96141 7.80602 3.96141C7.80602 3.96141 1.7104 8.84344 2.15079 9.27908C2.34981 9.4836 7.71498 3.78143 7.86743 3.93891C7.86743 3.93891 1.9073 9.36293 2.03434 9.49178C2.23125 9.69631 8.04528 3.88574 8.04528 3.88574C8.636 4.47682 1.99835 9.66359 1.99835 9.66359C1.99835 9.66359 7.77427 3.40919 8.22313 3.8571C8.22313 3.8571 1.58759 9.51428 1.92212 9.8497C1.92212 9.8497 7.85049 3.34579 8.35863 3.84483C8.35863 3.84483 1.67017 10.0972 1.76968 10.1974C1.76968 10.1974 8.08974 3.22307 8.6487 3.78143C8.75668 3.89392 1.4161 10.134 1.69981 10.4162L8.86466 3.73234C9.27118 4.14139 1.12179 10.0297 1.66593 10.5758C2.16984 11.0789 9.01075 3.63826 9.05522 3.68326C9.53584 4.16594 1.20225 10.5246 1.55795 10.8785C1.55795 10.8785 9.05522 3.43578 9.28812 3.66894C9.52102 3.9021 1.48597 11.2364 1.48597 11.2364C2.11691 11.8725 9.50831 3.75689 9.50831 3.75689L1.3801 11.5964C1.3801 11.5964 9.04675 3.39488 9.58877 3.93687C9.58877 3.93687 0.645408 10.9153 1.35681 11.627C1.71463 11.985 9.11873 3.44601 9.60147 3.93687L1.32082 11.9134C1.32082 11.9134 9.1145 3.84688 9.52737 4.25797L1.23401 12.2508C1.44574 12.4554 9.35587 4.68339 9.35587 4.68339C9.35587 4.68339 0.958765 12.2447 1.22766 12.5126C1.22766 12.5126 8.61059 4.0739 9.41303 4.87769C10.2155 5.68147 0.992641 12.6517 1.17684 12.8358C1.51561 13.1753 9.72851 4.85928 9.72851 4.85928L1.17896 12.8358C1.87343 13.5332 9.74333 4.84905 9.74333 4.84905C9.99952 5.10676 1.09639 12.7806 1.17684 12.8624C1.18743 12.8624 8.93453 4.01868 9.76662 4.8511C9.76662 4.8511 0.774562 12.9401 1.0858 13.251C1.10486 13.2714 10.2599 4.69361 10.2599 4.69361C10.2599 4.69361 0.643291 12.891 1.0858 13.3328L10.3595 4.68134C11.2741 5.59762 1.09639 13.5189 1.09639 13.5189C1.87343 14.294 10.2748 4.2048 10.6622 4.5934C10.6622 4.5934 0.990524 13.5741 1.06886 13.66C1.64053 14.2327 10.8485 4.53817 10.8485 4.53817C11.0158 4.70588 0.717395 13.3798 1.0858 13.7418C1.89248 14.5477 10.5225 4.06367 10.9735 4.51568C11.8564 5.40741 1.07733 13.8748 1.07733 13.8748C1.87343 14.6704 11.1069 4.51772 11.1069 4.51772C11.1069 4.51772 0.783031 13.6723 1.0731 13.9627C1.0731 13.9627 11.0243 4.36637 11.1873 4.5259C11.8183 5.15789 1.08157 14.022 1.08157 14.022C1.69346 14.6356 11.2656 4.52181 11.2656 4.52181C11.9707 5.22743 1.03499 14.2613 1.04557 14.2715C1.12391 14.3493 11.4202 4.59544 11.4202 4.59544C11.4202 4.59544 0.16267 13.5946 1.04981 14.4822L3.83826 11.8827C3.83826 11.8827 0.850784 14.5456 1.06886 14.7624C1.06886 14.7624 3.71757 12.1854 3.77262 12.2406C3.78532 12.2529 0.90795 14.6213 1.06463 14.7788C1.06463 14.7788 3.60536 12.0872 3.76627 12.257L1.06675 14.926L3.75568 12.4185C3.81073 12.4738 1.00323 15.0774 1.04346 15.1285C1.05616 15.1428 3.62653 12.4451 3.76839 12.5863C4.00764 12.8256 1.10697 15.3494 1.10697 15.3494C1.10697 15.3494 3.67734 12.8542 3.72816 12.8951C3.85943 13.0362 1.08368 15.5866 1.08368 15.5866C1.08368 15.5866 3.67523 13.0505 3.74086 13.1078C3.8065 13.1651 0.855018 15.5989 1.09004 15.8239C1.09004 15.8239 3.47832 13.1467 3.71122 13.3696L1.10486 15.8709C1.26365 16.0284 3.72392 13.4166 3.72392 13.4166L1.11544 15.963C1.29118 16.1389 3.69852 13.4719 3.74086 13.5087C3.78321 13.5455 1.1472 16.0611 1.1472 16.0611C1.39281 16.3066 3.71969 13.6621 3.71969 13.6621C3.79379 13.7357 0.967234 16.1164 1.16202 16.3045C1.35681 16.4927 3.70275 13.93 3.70275 13.93C3.89966 14.1243 0.950296 16.1245 1.16202 16.3413C1.17473 16.3536 3.61806 13.8114 3.74086 13.9341C3.96741 14.157 1.03499 16.2677 1.17049 16.4027C1.17049 16.4027 3.66464 13.9484 3.73663 14.0098C3.87425 14.1488 1.1959 16.5643 1.1959 16.5643C1.1959 16.5643 3.61594 14.11 3.71545 14.2143C3.71545 14.2143 1.02017 16.5438 1.23824 16.7606C1.23824 16.7606 3.52702 14.1652 3.76627 14.4024C3.85519 14.4924 1.04769 16.6052 1.28906 16.8568C1.28906 16.8568 3.58207 14.4024 3.75145 14.562C3.79803 14.5967 1.28694 17.1329 1.28694 17.1329L3.77262 14.8135L1.3187 17.1656C1.3187 17.1656 3.51008 14.6417 3.7578 14.8892C3.7578 14.8892 1.30388 17.2801 1.37798 17.3435C1.49867 17.4642 3.61171 14.8647 3.81497 15.0692C3.81497 15.0692 1.42456 17.591 1.43303 17.6012C1.62147 17.7894 3.82979 15.3658 3.82979 15.3658C4.04151 15.5703 1.50079 17.8201 1.50079 17.8201L3.88695 15.5907C3.88695 15.5907 1.28482 17.7035 1.50926 17.9285C1.67652 18.0941 3.88695 15.6664 3.91024 15.691C4.09868 15.8853 1.51561 17.9837 1.51984 17.9857C1.52408 17.9878 3.84884 15.6623 3.9293 15.736C4.12409 15.9405 1.49443 18.0123 1.49443 18.0123C1.5643 18.0839 3.77262 15.6173 3.91236 15.7625C3.91236 15.7584 1.32082 17.8692 1.53255 18.0737C1.60453 18.1453 3.96317 15.8055 3.96317 15.8055L1.52196 18.0839C1.52196 18.0839 3.89754 15.7073 3.98011 15.7912L1.55795 18.0921C1.67229 18.2066 3.85519 15.6971 3.98646 15.828C4.11774 15.9589 1.39281 17.9694 1.55795 18.1207L3.99917 15.8239C4.23419 16.0673 1.43092 17.9735 1.57489 18.1166C1.71887 18.2598 3.90389 15.7482 4.0034 15.8525C4.0034 15.8525 1.58124 18.2393 1.64053 18.3068C1.74216 18.4009 4.07539 16.0284 4.07539 16.0284C4.32523 16.2759 1.63841 18.4827 1.63841 18.4827L4.17914 16.1123C4.20454 16.1389 1.74004 18.6054 1.74004 18.6054C1.74004 18.6054 4.36757 16.1389 4.37604 16.1511L1.74216 18.7466L4.42474 16.2432C4.53696 16.3557 1.58971 18.6177 1.7972 18.8263C2.0047 19.0349 4.36122 16.0468 4.56236 16.2473L1.79085 18.9511C1.79085 18.9511 4.43744 16.1164 4.62588 16.3066C4.62588 16.3066 1.613 18.7466 1.87343 18.9981C1.87343 18.9981 4.53696 16.1082 4.74657 16.3168C4.74657 16.3168 1.81203 18.9756 1.86919 19.0227C1.86919 19.0227 4.6894 16.2759 4.7508 16.3352C4.7508 16.3352 1.89036 19.1863 1.95177 19.2477C1.95177 19.2477 4.75292 16.2207 4.96676 16.4354C5.18061 16.6502 1.94965 19.3601 1.94965 19.3601C1.94965 19.3601 4.75715 16.1859 5.0451 16.4722C5.23142 16.6604 1.7231 19.1658 1.95812 19.399C1.95812 19.399 5.01334 16.3475 5.11709 16.4518C5.40927 16.7422 2.02587 19.4072 2.02587 19.4072C2.02587 19.4072 5.11285 16.3802 5.18908 16.4559C5.30341 16.5704 2.01317 19.5238 2.01317 19.5238C2.27994 19.7917 5.21448 16.3823 5.29494 16.4559C5.46644 16.6256 2.07668 19.5115 2.07668 19.5115C2.13385 19.5688 5.22719 16.3352 5.34999 16.4579C5.34999 16.4579 1.89672 19.442 2.06398 19.6097L5.47914 16.4375C5.47914 16.4375 1.81626 19.3724 2.0788 19.6342C2.0788 19.6342 5.38386 16.4354 5.44527 16.4947C5.50667 16.5541 2.09786 19.7099 2.09786 19.7099C2.40486 20.0289 5.27165 16.4375 5.43256 16.6011C5.63159 16.8056 1.86284 19.5135 2.11903 19.7692L5.4622 16.642C5.4622 16.642 1.8332 19.4808 2.14655 19.7958C2.24607 19.896 5.46644 16.6972 5.46644 16.6972C5.72475 16.9549 2.0788 19.669 2.20372 19.8019C2.26936 19.8674 5.25259 16.5745 5.45162 16.7749C5.45162 16.7749 1.92001 19.5197 2.20584 19.806L5.41351 16.8138C5.41351 16.8138 2.17408 19.8244 2.2376 19.8817C2.44932 20.0862 5.10438 16.5847 5.42621 16.9079C5.42621 16.9079 2.16349 19.8612 2.28418 19.9758C2.46838 20.1598 5.34364 17.1124 5.34364 17.1124C5.65064 17.4397 2.08727 19.9144 2.28418 20.1189C2.51284 20.3357 5.3394 17.2556 5.3394 17.2556L2.32229 20.1742C2.32229 20.1742 5.15732 17.2719 5.28647 17.4069L2.38792 20.2171L5.2039 17.589C5.39445 17.7812 2.28418 20.1537 2.3731 20.2478C2.62929 20.5055 5.01122 17.3497 5.23777 17.5767C5.23777 17.5767 2.23971 20.2355 2.44509 20.44C2.65047 20.6446 5.03875 18.0164 5.03875 18.0164C5.28224 18.2598 2.33287 20.3071 2.46203 20.4339C2.46203 20.4339 4.90324 17.9039 5.03451 18.0348L2.56789 20.6262C2.56789 20.6262 3.72604 19.399 3.8065 19.4726C3.84249 19.5054 2.61659 20.8041 2.66529 20.8552C2.66529 20.8552 3.68793 19.7528 3.76415 19.8326L2.73516 20.8777C2.73516 20.8777 3.78109 19.8694 3.79379 19.8858C3.86366 19.9553 2.58906 20.8266 2.69916 20.935C2.73092 20.9657 3.70698 19.9124 3.74721 19.9574C3.78744 20.0024 2.73304 20.937 2.73304 20.937C2.79232 20.9963 3.7705 19.9696 3.7705 19.9696C3.80226 20.0003 2.71187 20.98 2.7775 21.0475C2.79656 21.0659 3.78956 20.1026 3.78956 20.1026C3.82555 20.1394 2.83467 21.205 2.88125 21.252L3.8319 20.3644L2.90242 21.2643C2.92783 21.2909 3.8192 20.2969 3.87848 20.3541C3.87848 20.3541 2.85372 21.207 2.93841 21.2929C2.93841 21.2929 3.81497 20.3235 3.8933 20.4032C3.8933 20.4032 2.89819 21.2029 2.96594 21.2704C3.03369 21.3379 3.88695 20.4216 3.88695 20.4216L2.99558 21.4443C3.04216 21.4913 3.90813 20.5934 3.90813 20.5934C3.90813 20.5934 3.03369 21.3849 3.06122 21.4115C3.08874 21.4381 3.942 20.5607 3.95682 20.5771L3.07392 21.4708C3.10568 21.5036 3.95259 20.6527 3.95259 20.6527L3.1946 21.6283C3.1946 21.6283 4.02034 20.7959 4.0521 20.8286C4.08386 20.8614 3.25601 21.7756 3.29835 21.8185C3.31105 21.8308 4.07962 21.0843 4.08386 21.0884L3.37881 22.0108C3.37881 22.0108 4.17702 21.2193 4.20031 21.2438C4.25959 21.3031 3.46773 22.0374 3.46773 22.0374C3.50161 22.0701 4.1749 21.2786 4.22783 21.3297L3.51855 22.1335C3.57783 22.1949 4.24689 21.4279 4.25959 21.4422C4.2723 21.4565 3.53549 22.2603 3.56301 22.2787L4.32735 21.5506C4.39722 21.6222 3.58207 22.2501 3.59477 22.2624L4.34428 21.5506L3.62441 22.3074L4.35064 21.6304C4.35064 21.6304 3.69428 22.4117 3.73027 22.4485C3.73027 22.4485 4.36546 21.7429 4.42262 21.8042C4.42262 21.8042 3.7451 22.5426 3.78744 22.5896C3.82979 22.6366 4.52637 21.9004 4.52637 21.9004L3.82132 22.6285C3.84884 22.653 4.51367 21.9597 4.52425 21.9719C4.58354 22.0312 3.85943 22.6203 3.87425 22.6366C3.92718 22.6878 4.58565 21.974 4.58565 21.974L3.93353 22.7471C3.94624 22.7594 4.64494 22.0844 4.64494 22.0844L3.98858 22.7941C4.2126 22.6076 4.42472 22.4082 4.62376 22.1969L3.97588 22.835L4.68728 22.1703C4.71692 22.201 4.04151 22.8207 4.07116 22.8514C4.13679 22.9168 4.72328 22.2378 4.72328 22.2378C4.72328 22.2378 4.0394 22.8514 4.07327 22.878C4.10715 22.9046 4.69575 22.289 4.70845 22.291C4.74233 22.3258 4.1008 22.97 4.13256 23.0027C4.16432 23.0355 4.74445 22.4035 4.76774 22.4178C4.81432 22.4669 4.20454 23.0171 4.20454 23.0171L4.79315 22.4689C4.8122 22.4873 4.25536 23.1091 4.28923 23.1439C4.28923 23.1439 4.81644 22.6285 4.82914 22.6407C4.84184 22.653 4.29135 23.1868 4.31676 23.2114L4.86513 22.7021C4.91806 22.7532 4.49884 23.3545 4.49884 23.3545C4.49884 23.3545 4.88631 22.9823 4.89689 22.9823C4.90748 22.9823 4.60683 23.4732 4.63647 23.5018C4.66611 23.5304 4.97947 23.1868 4.97947 23.1868C4.97947 23.1868 4.66823 23.5795 4.69999 23.6122L4.97523 23.3545C4.91254 23.4623 4.84178 23.5655 4.7635 23.6634C4.7635 23.6634 4.97523 23.4323 4.99005 23.4588C4.92091 23.558 4.8607 23.6627 4.81008 23.7718L5.04298 23.555C5.03173 23.6832 5.0069 23.81 4.96888 23.9333C4.96888 23.9333 5.08109 23.8249 5.08109 23.827C5.08109 23.829 5.03028 23.9538 5.03028 23.9538L5.11921 23.874C5.11921 23.874 5.05569 23.9824 5.06204 23.9886L5.11921 23.9354" stroke="#BDC8F1" stroke-width="0.450589" stroke-linecap="round" stroke-linejoin="round"/>
<path d="M21.9111 10.1792C21.9387 10.2037 22.3642 9.70057 22.3939 9.72921C22.4235 9.75784 22.0233 10.0564 22.053 10.0851C22.156 10.0002 22.2536 9.90939 22.3452 9.81306" stroke="#BDC8F1" stroke-width="0.450589" stroke-linecap="round" stroke-linejoin="round"/>
<path d="M21.3588 10.1077C21.4435 10.1916 22.3709 8.97668 22.4683 9.07281L21.1831 10.4431C21.3123 10.5699 22.4873 9.1812 22.5106 9.2037C22.5339 9.2262 21.1683 10.6988 21.1873 10.7111C21.2064 10.7233 22.5191 9.4839 22.5191 9.4839C22.6101 9.57594 21.2276 10.7315 21.2276 10.7315C21.3101 10.8154 22.3836 9.45731 22.4852 9.55958L21.3313 10.9156L21.5557 10.7111L21.4372 11.1201L21.543 11.0199L21.5007 11.1385C21.5151 11.1273 21.5286 11.115 21.5409 11.1017" stroke="#BDC8F1" stroke-width="0.450589" stroke-linecap="round" stroke-linejoin="round"/>
<path d="M21.8838 8.0951L22.1252 7.87012C22.1008 7.92842 22.0725 7.98513 22.0405 8.03987C22.0405 8.03987 22.1125 7.95602 22.1209 7.9642" stroke="#BDC8F1" stroke-width="0.450589" stroke-linecap="round" stroke-linejoin="round"/>
<path d="M21.3989 7.53649L21.4836 7.45673L21.4074 7.56513L21.5281 7.45264C21.5139 7.53437 21.5096 7.61742 21.5154 7.70011C21.5323 7.71647 21.6594 7.54263 21.6721 7.55285C21.6415 7.64881 21.6209 7.74747 21.6107 7.84737C21.7289 7.71954 21.857 7.60057 21.9939 7.4915C22.0362 7.53445 21.5958 8.02122 21.5979 8.02531C21.6001 8.0294 22.0405 7.54058 22.0786 7.5774C22.1167 7.61421 21.6064 8.31369 21.6064 8.31369C21.6382 8.34437 22.1252 7.83101 22.1252 7.83101C22.1675 7.87191 21.6297 8.3505 21.6636 8.38323L21.7165 8.33414C21.7126 8.3912 21.7012 8.44756 21.6826 8.50185L21.8457 8.3505C21.8457 8.3505 21.8118 8.59389 21.8139 8.59593C21.816 8.59798 22.0256 8.40573 22.0256 8.40573C22.0256 8.40573 21.8372 8.61025 21.8541 8.62661C21.8711 8.64298 22.032 8.44868 22.0383 8.45481C22.0447 8.46095 21.8541 8.72479 21.8605 8.73092C21.8668 8.73706 22.0955 8.49776 22.0955 8.49776L21.9177 8.79023C21.9177 8.79023 22.1294 8.56321 22.1421 8.58571C22.0631 8.68372 21.9923 8.78768 21.9304 8.89659C21.9304 8.89659 22.1421 8.65525 22.1654 8.67775C22.1887 8.70024 21.8668 9.14406 21.8732 9.14815C21.8795 9.15224 22.2268 8.75956 22.2564 8.79023C22.2861 8.82091 21.7758 9.35677 21.7991 9.37722L22.3369 8.87C22.3708 8.90681 21.7165 9.48358 21.7652 9.53266C21.8139 9.58175 22.4004 8.91909 22.4004 8.93136C22.4554 8.98453 21.5895 9.76787 21.6297 9.80673C21.6297 9.80673 22.4258 9.0193 22.4491 9.0418" stroke="#BDC8F1" stroke-width="0.450589" stroke-linecap="round" stroke-linejoin="round"/>
<path d="M18.7736 18.7444L18.8244 18.6994C18.7954 18.7695 18.7622 18.8378 18.7249 18.904C18.7249 18.904 19.0933 18.4806 19.1356 18.5215C19.1356 18.5215 18.6402 19.1739 18.6762 19.2087C18.799 19.3335 20.5267 17.4805 20.5267 17.4805C20.5754 17.5296 18.7185 19.45 18.7291 19.4582L20.586 17.7239L18.7672 19.491C18.7672 19.491 20.4992 17.7218 20.5775 17.8016C20.749 17.9734 18.8159 19.5871 18.8159 19.5871C18.926 19.6996 20.5987 17.9243 20.5987 17.9243C20.6347 17.9611 18.9049 19.5891 18.9451 19.6382C18.9451 19.6382 20.5754 17.9182 20.6791 18.0225C20.7829 18.1268 18.9578 19.628 19.0658 19.7343C19.2119 19.8816 20.7342 18.1799 20.7342 18.1799C20.7342 18.1799 19.2965 19.7814 19.3093 19.7937C19.322 19.8059 20.7575 18.2536 20.8549 18.362C20.8549 18.362 19.4553 19.8223 19.485 19.853C19.5146 19.8836 20.9141 18.5174 20.9141 18.5195C20.9501 18.5542 19.4765 19.7732 19.5697 19.8673L20.7426 18.7751C20.7913 18.8242 19.6565 19.9021 19.6565 19.9021L20.6558 18.9694C20.6982 19.0103 19.8089 19.9552 19.8365 19.9757C19.864 19.9961 20.5775 19.2782 20.5796 19.2803C20.5817 19.2823 19.9254 19.9716 19.9444 19.9818C19.9635 19.992 20.5224 19.3928 20.5479 19.4194C20.3956 19.5967 20.2543 19.7825 20.1244 19.9757C20.1244 19.9757 20.4716 19.6505 20.4716 19.6505C20.4716 19.6505 20.298 19.8898 20.3086 19.9C20.3192 19.9102 20.4251 19.765 20.4378 19.7773" stroke="#BDC8F1" stroke-width="0.450589" stroke-linecap="round" stroke-linejoin="round"/>
<path d="M20.008 17.4604L20.2197 17.2702L19.9572 17.5381L20.2832 17.2334C20.2832 17.2334 19.6481 17.9247 19.72 17.9942C19.792 18.0638 20.37 17.2988 20.4166 17.3459C20.4166 17.3459 19.5274 18.121 19.5994 18.1926C19.5994 18.1926 20.4209 17.3479 20.4611 17.3888" stroke="#BDC8F1" stroke-width="0.450589" stroke-linecap="round" stroke-linejoin="round"/>
<path d="M25.9639 18.6872C25.9977 18.722 26.4 18.2025 26.4403 18.2413L26.1438 18.6913C26.1756 18.722 26.4762 18.3681 26.4826 18.3743C26.489 18.3804 26.2709 18.8406 26.2709 18.8447C26.3734 18.7593 26.4709 18.6685 26.5631 18.5727C26.5842 18.5931 26.3069 18.857 26.3069 18.857C26.3069 18.857 26.5461 18.5931 26.5673 18.6136L26.4741 18.9879C26.4741 18.9879 26.7536 18.7281 26.7536 18.7302V19.0329C26.7536 19.0329 26.9145 18.8815 26.9145 18.8835L26.8447 18.9899C26.8742 18.9668 26.9018 18.9415 26.9272 18.9142" stroke="#BDC8F1" stroke-width="0.450589" stroke-linecap="round" stroke-linejoin="round"/>
<path d="M23.5011 18.0511L23.6388 17.9243L23.4863 18.1022L23.6981 17.8977C23.6981 17.8977 23.4736 18.2761 23.5075 18.3068C23.5414 18.3374 23.8166 17.9754 23.8378 17.9979C23.7611 18.1268 23.7007 18.2642 23.6578 18.407C23.7641 18.2941 23.8787 18.1888 24.0008 18.092C24.0305 18.1206 23.7764 18.4622 23.7785 18.4642C23.7806 18.4663 24.13 18.0797 24.1596 18.1104C24.0953 18.2971 24.0094 18.4762 23.9034 18.6442C23.9585 18.6995 24.8308 17.7791 24.8308 17.7791C24.9007 17.8507 23.9542 18.6115 24.0114 18.6688L25.0065 17.7382C25.1039 17.8364 24.1067 18.7138 24.1067 18.7138L25.195 17.6911C25.195 17.6911 24.3608 18.6565 24.3777 18.6729C24.3946 18.6892 25.4829 17.6646 25.4829 17.6646C25.4829 17.6646 24.3777 18.5972 24.4603 18.6872C24.4963 18.724 25.4956 17.6646 25.5189 17.6932C25.5422 17.7218 24.5238 18.6872 24.5471 18.7158C24.5704 18.7444 25.6417 17.6932 25.6417 17.6932C25.737 17.7893 24.7207 18.681 24.7207 18.681C24.7207 18.681 25.6735 17.6461 25.7497 17.7218C25.7497 17.7218 24.7715 18.6483 24.8244 18.6994C24.8244 18.6994 25.7412 17.6768 25.8238 17.7668C25.8238 17.7668 24.888 18.8119 24.9007 18.8263C24.9134 18.8406 25.9043 17.7218 25.9911 17.8036C26.0101 17.822 24.8964 18.8958 24.9324 18.9428L26.1181 17.8282C26.188 17.8977 24.8477 18.9633 24.9409 19.0553C25.0341 19.1474 26.2113 17.8466 26.2282 17.8548C26.3129 17.9386 24.9261 19.1453 24.9875 19.2087C24.9875 19.2087 26.2811 17.9263 26.3214 17.9652C26.3616 18.0041 25.4003 19.1187 25.4003 19.1187C25.4808 19.2005 26.3785 18.2065 26.3785 18.2065L25.5676 19.0594C25.5676 19.0594 25.7793 18.8263 25.8005 18.8426" stroke="#BDC8F1" stroke-width="0.450589" stroke-linecap="round" stroke-linejoin="round"/>
<path d="M25.4829 19.6465C25.4829 19.6465 25.5866 19.5381 25.593 19.5442L25.4215 19.8755C25.4427 19.8939 25.6332 19.671 25.6332 19.671C25.6332 19.671 25.3516 20.2007 25.358 20.2069C25.469 20.1147 25.575 20.0171 25.6756 19.9144C25.6989 19.9389 25.3707 20.2416 25.3707 20.2416C25.3707 20.2416 25.6459 19.941 25.6692 19.9655L25.3559 20.5443C25.3559 20.5443 25.7666 20.1537 25.7793 20.1578L25.2627 20.9432C25.305 20.9841 25.8831 20.3521 25.8979 20.3582" stroke="#BDC8F1" stroke-width="0.450589" stroke-linecap="round" stroke-linejoin="round"/>
<path d="M23.5774 20.3236L23.7066 20.2029C23.6477 20.3036 23.5811 20.4 23.5076 20.4913C23.5076 20.4913 23.8675 20.0822 23.9077 20.119C23.9077 20.119 22.7136 21.3462 22.7856 21.4239C22.8576 21.5016 24.1427 20.1579 24.1427 20.1579C24.1787 20.1927 22.6861 21.5139 22.6924 21.52L24.1427 20.1661" stroke="#BDC8F1" stroke-width="0.450589" stroke-linecap="round" stroke-linejoin="round"/>
<path d="M19.9783 23.3524L20.2387 23.111L19.9444 23.4219L20.3678 23.0354C20.3678 23.0354 19.8512 23.6367 19.9105 23.696C19.9698 23.7553 20.7384 22.8124 20.7976 22.8779C20.7976 22.8779 19.866 23.8269 19.9507 23.9005C19.9507 23.9005 21.1999 22.6181 21.2613 22.6734C21.382 22.794 19.991 24.015 19.991 24.0253C19.991 24.0355 21.7377 22.115 21.8838 22.2602C22.0299 22.4054 20.0121 24.3055 20.0121 24.3055C20.2704 24.5632 24.3547 20.2559 24.3547 20.2559C24.6977 20.5995 19.7856 24.1112 20.0587 24.3852L24.4118 20.3234C24.8565 20.7672 20.0481 24.5264 20.0481 24.5264L24.4944 20.3806C24.4944 20.3806 20.0481 24.5898 20.1307 24.6757C20.2895 24.8331 24.577 20.5177 24.577 20.5177C24.577 20.5177 19.8046 24.3525 20.1519 24.7002C20.3043 24.8536 24.4584 20.442 24.5833 20.5667C24.5833 20.5667 20.0481 24.7186 20.137 24.8147C20.2831 24.962 24.6193 20.6342 24.6193 20.6342C25.0428 21.0617 20.2027 24.8822 20.2027 24.8822C20.2027 24.8822 24.3271 20.4154 24.649 20.7365C24.649 20.7365 19.991 24.7432 20.2217 24.9804C20.2217 24.9804 24.3165 20.4808 24.668 20.8367C24.668 20.8367 20.1243 25.1502 20.19 25.2136C20.19 25.2136 24.3928 20.5749 24.7633 20.9472C24.8374 21.0187 20.0862 25.1133 20.2704 25.2974L24.8692 21.0024C25.1169 21.2499 20.19 24.8556 20.5224 25.189C20.8548 25.5224 24.9687 20.9901 24.992 21.0167C25.2524 21.2764 20.7765 24.7779 20.9691 24.9702C20.9691 24.9702 25.7626 20.2109 25.9109 20.3602C26.0591 20.5095 21.7525 24.5345 21.7525 24.5345C22.0892 24.87 25.9871 20.5831 25.9871 20.5831L22.32 24.2646C22.32 24.2646 25.8473 20.4911 26.0972 20.7406C26.0972 20.7406 22.0002 23.9435 22.3263 24.2707C22.4893 24.4343 25.8918 20.5156 26.1141 20.7365L22.845 24.0355C22.845 24.0355 26.04 20.7324 26.2094 20.9022L23.2071 23.97C23.2854 24.0498 26.3131 21.074 26.3131 21.074C26.3131 21.074 23.3849 23.8739 23.4823 23.97C23.4823 23.97 26.1459 20.9247 26.4465 21.2151C26.7472 21.5055 23.5586 24.058 23.6242 24.1214C23.7385 24.2359 26.4762 21.4626 26.4762 21.4626L23.6327 24.1214C23.8656 24.3546 26.4825 21.4626 26.4825 21.4626C26.5693 21.5464 23.6178 24.103 23.6454 24.1214C23.6729 24.1398 26.1988 21.2028 26.4762 21.4789C26.4762 21.4789 23.675 24.2012 23.7766 24.3014L26.491 21.7693C26.491 21.7693 23.711 24.195 23.8402 24.3239L26.4529 21.8859C26.7006 22.1355 24.0138 24.3566 24.0138 24.3566C24.2086 24.5611 26.311 22.0271 26.4084 22.1252C26.4084 22.1252 24.0794 24.375 24.0921 24.4016C24.2234 24.5325 26.3809 22.2663 26.3809 22.2663C26.419 22.3032 24.1239 24.3116 24.2086 24.3975C24.3801 24.5693 26.2179 22.3359 26.3153 22.432C26.4973 22.614 24.3208 24.4077 24.3208 24.4077C24.4626 24.5509 26.1056 22.7429 26.1056 22.7429C26.1056 22.7429 24.3631 24.3566 24.4118 24.4057C24.4118 24.4057 25.769 23.0967 25.7923 23.1192C25.8727 23.201 24.5219 24.3832 24.5219 24.3832C24.5812 24.4405 25.462 23.5078 25.462 23.5078C25.5255 23.5712 24.5346 24.3995 24.5367 24.4016C24.5389 24.4036 25.1719 23.8023 25.1719 23.8023" stroke="#BDC8F1" stroke-width="0.450589" stroke-linecap="round" stroke-linejoin="round"/>
<path d="M5.3501 22.2254L5.4602 22.1211C5.44077 22.1791 5.41743 22.2358 5.39033 22.2909C5.39033 22.2909 5.94505 21.6528 6.00857 21.7141C6.00857 21.7141 5.45808 22.4136 5.49407 22.4525C5.53007 22.4913 6.07844 21.9064 6.07844 21.9064C6.07844 21.9064 5.60205 22.6427 5.60629 22.6468L6.1716 22.1191L5.63805 22.6856C5.80582 22.5055 5.98621 22.3367 6.17795 22.1804C6.23512 22.2377 5.65287 22.8124 5.65287 22.8124C5.68886 22.8472 6.21606 22.2868 6.21606 22.2868C6.21606 22.2868 5.69098 22.9167 5.71003 22.9331C5.72909 22.9495 6.23088 22.385 6.26264 22.4177C6.2944 22.4504 5.68463 23.0844 5.72486 23.1253C5.76508 23.1662 6.25629 22.6304 6.25629 22.6304C6.25629 22.6304 5.83284 23.2971 5.84554 23.3012C5.85824 23.3053 6.28805 22.8308 6.31769 22.8595C6.34733 22.8881 5.94082 23.4055 5.94929 23.4158C5.95775 23.426 6.38544 23.0067 6.38756 23.0067C6.38968 23.0067 5.97893 23.426 6.00645 23.4546L6.40238 23.0865C6.29813 23.2389 6.18355 23.3844 6.05938 23.5221L6.41297 23.1867C6.42991 23.2031 6.15678 23.6469 6.16525 23.6551C6.17372 23.6632 6.47649 23.3626 6.4786 23.3646C6.48072 23.3667 6.22877 23.6878 6.233 23.6919C6.23724 23.696 6.48284 23.4383 6.49342 23.4485C6.43773 23.5443 6.38823 23.6433 6.34522 23.7451C6.34522 23.7451 6.51883 23.5814 6.51883 23.5814C6.51883 23.5814 6.55906 23.7553 6.56541 23.7614C6.57176 23.7676 6.60352 23.7185 6.60564 23.7226" stroke="#BDC8F1" stroke-width="0.450589" stroke-linecap="round" stroke-linejoin="round"/>
<path d="M5.84332 21.6674L5.91319 21.604L5.84968 21.6981L5.94495 21.6101C5.94495 21.6101 5.79463 21.7963 5.81368 21.8147C5.83274 21.8331 5.92378 21.6919 5.93437 21.7022" stroke="#BDC8F1" stroke-width="0.450589" stroke-linecap="round" stroke-linejoin="round"/>
<path d="M11.4902 17.6871L11.5516 17.6299L11.4924 17.7219L11.5771 17.6442C11.5771 17.6442 11.4585 17.9408 11.4839 17.9653C11.5093 17.9898 11.6109 17.8283 11.6215 17.8365C11.5562 17.9557 11.5058 18.0821 11.4712 18.2128C11.548 18.1301 11.6316 18.0535 11.721 17.9837C11.7507 18.0123 11.4881 18.3621 11.4902 18.3662C11.4924 18.3703 11.7824 18.0451 11.8057 18.0696C11.7627 18.2326 11.7009 18.3904 11.6215 18.54C11.6342 18.5543 11.8523 18.3232 11.8523 18.3232C11.8523 18.3232 11.7274 18.4623 11.7359 18.4705L11.8438 18.3703" stroke="#BDC8F1" stroke-width="0.450589" stroke-linecap="round" stroke-linejoin="round"/>
<path d="M14.8311 18.6874L14.9263 18.5954L14.8649 18.6895L14.9814 18.5811C14.9835 18.6499 14.9927 18.7185 15.0089 18.7856C15.0216 18.7999 15.1211 18.6629 15.1317 18.671C15.13 18.7462 15.1342 18.8215 15.1444 18.896C15.1924 18.8429 15.2448 18.7936 15.3011 18.7488C15.2905 18.8233 15.272 18.8967 15.246 18.9676C15.246 18.9676 15.426 18.7631 15.4408 18.7856C15.4304 18.9074 15.4077 19.028 15.3731 19.1455C15.455 19.0836 15.5315 19.0152 15.6017 18.941C15.6187 18.9574 15.4472 19.1803 15.4599 19.1946L15.6716 18.9901C15.697 19.0146 15.5043 19.2826 15.5043 19.2826L15.7754 19.029C15.7754 19.029 15.6504 19.3542 15.6568 19.3583C15.7612 19.2705 15.8608 19.1777 15.9553 19.0801C15.9553 19.0801 15.6822 19.3521 15.7034 19.3746C15.7245 19.3971 15.9659 19.1149 15.9744 19.121C15.9828 19.1271 15.7245 19.4503 15.733 19.4564C15.7415 19.4626 16.057 19.1537 16.057 19.1537L15.8452 19.4871C15.8452 19.4871 16.1099 19.1987 16.1311 19.2212C16.045 19.3248 15.9679 19.4349 15.9003 19.5505C15.9003 19.5505 16.1332 19.2703 16.1671 19.301C16.2009 19.3317 15.9363 19.71 15.9426 19.71C15.949 19.71 16.2644 19.3562 16.292 19.3848C16.3195 19.4135 16.0167 19.7714 16.0315 19.7939L16.3788 19.4401C16.4 19.4626 16.0548 19.8205 16.0824 19.8491C16.1099 19.8777 16.4783 19.4748 16.4804 19.4789C16.4825 19.483 16.1374 19.9636 16.1671 19.9841C16.1967 20.0046 16.5905 19.5587 16.6096 19.575C16.6286 19.5914 16.3682 20.0966 16.3682 20.0966C16.4021 20.1314 16.7599 19.7305 16.7599 19.7305L16.4931 20.2357C16.4931 20.2357 16.9166 19.7816 16.9462 19.8123C16.9462 19.8123 16.4402 20.2213 16.4825 20.2582C16.5249 20.295 16.9399 19.7775 16.9674 19.8062L16.654 20.3359C16.7995 20.1745 16.9589 20.0254 17.1304 19.89L16.7853 20.4709C16.798 20.4831 17.3167 19.9739 17.3167 19.9739C17.3167 19.9739 16.9759 20.5281 16.9907 20.5281C17.0055 20.5281 17.4734 19.9739 17.5285 20.0271C17.5835 20.0802 17.1516 20.6406 17.1622 20.6406C17.3437 20.4929 17.5148 20.3337 17.6746 20.1641L17.1706 20.6386C17.2151 20.6836 17.683 20.16 17.683 20.16C17.683 20.16 17.1833 20.6406 17.1876 20.6447C17.1918 20.6488 17.6343 20.1252 17.6873 20.1784C17.5595 20.3824 17.4429 20.5926 17.3379 20.8083C17.3379 20.8083 17.8609 20.3359 17.8609 20.3359C17.6984 20.4918 17.5484 20.6593 17.412 20.837L17.8545 20.4279C17.8926 20.4647 17.5835 20.8779 17.5835 20.8779C17.5835 20.8779 17.8672 20.5875 17.8799 20.5997C17.8926 20.612 17.6682 20.9167 17.6682 20.9188C17.7441 20.8559 17.8149 20.7875 17.8799 20.7143C17.8799 20.7143 17.7232 20.884 17.7296 20.8901C17.736 20.8963 17.8376 20.7756 17.8439 20.7817" stroke="#BDC8F1" stroke-width="0.450589" stroke-linecap="round" stroke-linejoin="round"/>
<path d="M18.4114 20.7326L18.604 20.5526L18.3203 20.8532L18.6612 20.528C18.6612 20.528 18.496 20.8634 18.5257 20.8921C18.5553 20.9207 18.8263 20.5689 18.8475 20.5914C18.8061 20.6935 18.777 20.7999 18.7607 20.9084C18.8551 20.8053 18.9577 20.7096 19.0677 20.6221C19.0889 20.6426 18.9407 20.9044 18.9407 20.9064C18.9407 20.9084 19.2286 20.5914 19.2519 20.616C19.2529 20.7236 19.2437 20.8311 19.2244 20.9371C19.2413 20.9555 19.5272 20.6548 19.5272 20.6548C19.5272 20.6548 19.3662 20.9003 19.3789 20.9146L19.669 20.6446C19.6923 20.6691 19.4996 20.9371 19.4996 20.9371L19.8469 20.6119C19.8469 20.6119 19.7749 20.8921 19.777 20.8962C19.9052 20.7886 20.0275 20.6746 20.1433 20.5546C20.1433 20.5546 19.8257 20.8614 19.8511 20.8859C19.8765 20.9105 20.1899 20.5607 20.1899 20.571C20.1899 20.5812 19.9316 20.9084 19.94 20.9146C19.9485 20.9207 20.3381 20.5423 20.3381 20.5423L20.1263 20.8757C20.1263 20.8757 20.4588 20.5117 20.4863 20.5383C20.3969 20.6448 20.3169 20.7584 20.247 20.8778C20.247 20.8778 20.5646 20.528 20.5964 20.5485C20.5964 20.5485 20.4037 20.9187 20.4079 20.9228C20.4122 20.9269 20.8123 20.4789 20.8462 20.5137C20.8801 20.5485 20.5773 20.8962 20.5921 20.9105L21.0537 20.481C21.0749 20.5014 20.7234 20.8655 20.7509 20.89C20.7785 20.9146 21.2485 20.4319 21.2485 20.4339C21.2485 20.436 20.9373 20.8859 20.9563 20.9044C20.9754 20.9228 21.4835 20.3849 21.4983 20.3992C21.5132 20.4135 21.4412 20.7489 21.4412 20.7489C21.4751 20.7837 21.8329 20.3828 21.8329 20.3828L21.7926 20.5873C21.7926 20.5873 21.9176 20.4483 21.9281 20.4605" stroke="#BDC8F1" stroke-width="0.450589" stroke-linecap="round" stroke-linejoin="round"/>
<path d="M9.74106 2.08187L9.87657 1.95506L9.66484 2.18209L9.95279 1.9162C9.95279 1.9162 9.57803 2.41525 9.62461 2.46229C9.67119 2.50933 10.2725 1.76894 10.3191 1.81394C10.3191 1.81394 9.89563 2.36616 9.93374 2.40911C9.93374 2.40911 10.6748 1.64623 10.7129 1.68304C10.751 1.71986 10.1688 2.34571 10.1751 2.35184C10.1815 2.35798 10.9416 1.50715 11.0051 1.57669C11.0686 1.64623 10.5499 2.29662 10.5499 2.29662C10.6028 2.34775 11.4243 1.47852 11.4243 1.47852C11.4836 1.53579 10.6938 2.19027 10.7404 2.23731L11.5979 1.43761C11.6741 1.51533 10.8971 2.22708 10.8971 2.22708L11.8075 1.37626C11.8075 1.37626 11.2126 2.12073 11.2253 2.14118C11.238 2.16163 12.1442 1.28626 12.1442 1.28626C12.1442 1.28626 11.2422 2.05528 11.31 2.12073C11.3417 2.15345 12.178 1.26172 12.2035 1.28831C12.2289 1.3149 11.4052 2.10641 11.4222 2.12686C11.4391 2.14732 12.3686 1.24536 12.3686 1.24536C12.4448 1.32308 11.6212 2.06346 11.6212 2.06346C11.6212 2.06346 12.4554 1.15741 12.521 1.22286C12.521 1.22286 11.7101 2.01029 11.7525 2.05528C11.7525 2.05528 12.5719 1.15128 12.6438 1.22286C12.6438 1.22286 11.907 2.088 11.9176 2.09823C11.9282 2.10846 12.8259 1.0981 12.9043 1.18605C12.9191 1.20036 12.0807 2.04505 12.1166 2.07982L13.116 1.14719C13.1647 1.19627 12.2373 1.96529 12.3051 2.03483C12.3728 2.10437 13.2981 1.0981 13.3044 1.0981C13.3595 1.15332 12.5041 1.96529 12.5443 2.00619C12.5443 2.00619 13.5098 1.04697 13.5395 1.0756C13.398 1.32719 13.2432 1.57158 13.0758 1.8078C13.1414 1.87325 13.8486 1.0981 13.8486 1.0981L13.6263 1.55419C13.6263 1.55419 14.1132 1.02652 14.1492 1.06333C14.1492 1.06333 13.5754 1.52147 13.6199 1.56851C13.6644 1.61555 14.1429 1.01834 14.1746 1.05106L13.9777 1.48465C14.1231 1.32515 14.2817 1.1774 14.452 1.04288L14.308 1.43557C14.3186 1.44784 14.7315 1.02652 14.7315 1.02652C14.7315 1.02652 14.7505 1.25354 14.7548 1.25968C14.759 1.26581 15.0194 0.97334 15.047 1.00197L15.1952 1.13901C15.2337 1.10827 15.2698 1.07477 15.3031 1.03879L15.21 1.13287C15.21 1.1431 15.3158 1.0347 15.3158 1.0347L15.246 1.11855C15.246 1.11855 15.3201 1.03061 15.3201 1.04288C15.3201 1.05515 15.4535 1.07151 15.4577 1.0756L15.5318 1.02243" stroke="#BDC8F1" stroke-width="0.450589" stroke-linecap="round" stroke-linejoin="round"/>
<path d="M18.1089 1.40276L18.1724 1.34345L18.1343 1.41298L18.2148 1.33936C18.2166 1.40804 18.2244 1.47646 18.238 1.54388C18.2529 1.5582 18.3587 1.41298 18.3672 1.42321C18.3506 1.50887 18.3421 1.59581 18.3418 1.68296C18.4128 1.60878 18.49 1.54038 18.5726 1.47843C18.5937 1.50093 18.4244 1.78113 18.4244 1.78318C18.4244 1.78522 18.7081 1.46207 18.7398 1.48661C18.6887 1.6568 18.6177 1.82079 18.5281 1.97543C18.5535 2.00202 18.9516 1.58274 18.9516 1.58274C18.9516 1.58274 18.5895 1.99179 18.6149 2.01838L19.0384 1.60933C19.0828 1.65432 18.6615 2.0961 18.6615 2.0961L19.1633 1.62569C19.1633 1.62569 18.8859 2.10837 18.8944 2.12064C19.0665 1.97437 19.2305 1.81939 19.3856 1.65637C19.3856 1.65637 18.9198 2.07565 18.96 2.12064C19.0003 2.16564 19.4004 1.68705 19.4131 1.69932C19.4258 1.71159 19.032 2.14723 19.0405 2.15541C19.049 2.16359 19.5126 1.71159 19.5126 1.71159C19.5486 1.74841 19.2078 2.12064 19.2078 2.12064C19.2078 2.12064 19.5698 1.72591 19.5994 1.75454C19.4961 1.86948 19.4019 1.99187 19.3178 2.12064C19.3178 2.12064 19.6312 1.7709 19.6608 1.80158C19.6608 1.80158 19.4724 2.16768 19.4788 2.17177C19.4851 2.17587 19.7964 1.82204 19.8239 1.84862C19.8514 1.87521 19.6968 2.12064 19.7053 2.12064L19.9551 1.88748C19.9551 1.89771 19.8218 2.11451 19.8366 2.12882C19.8514 2.14314 20.0801 1.90385 20.0822 1.91612C20.0843 1.92839 19.9192 2.24131 19.9319 2.25358C19.9446 2.26586 20.2219 1.96929 20.2304 1.97748C20.2389 1.98566 20.1372 2.35585 20.1372 2.35585L20.4019 2.09405L20.2622 2.48879C20.2622 2.48879 20.5797 2.14519 20.6136 2.16768C20.6475 2.19018 20.2283 2.47856 20.2579 2.51129C20.2876 2.54401 20.6136 2.13905 20.6242 2.16155L20.4337 2.58901C20.5459 2.46494 20.6691 2.35065 20.8021 2.24745L20.6136 2.68718C20.6136 2.69536 20.9905 2.32517 20.9905 2.32517C20.9905 2.32517 20.9439 2.6115 20.9503 2.61969C20.9566 2.62787 21.1789 2.35585 21.2065 2.38039C21.234 2.40493 21.3039 2.54197 21.306 2.54606C21.3081 2.55015 21.3547 2.50106 21.3547 2.50106" stroke="#BDC8F1" stroke-width="0.450589" stroke-linecap="round" stroke-linejoin="round"/>
<path d="M22.0955 5.72861C22.0958 5.73065 22.0957 5.73274 22.0951 5.73472C22.0945 5.7367 22.0934 5.73853 22.092 5.74008C22.0906 5.74164 22.0889 5.74288 22.0869 5.74372C22.085 5.74457 22.0829 5.74499 22.0807 5.74497C21.9833 5.74497 21.4625 5.74497 21.3503 5.50568C21.2272 5.27369 21.0395 5.07957 20.8082 4.94528C20.5796 4.79802 20.2577 3.78971 20.0164 4.26216C19.9758 4.34472 19.964 4.43774 19.9827 4.52732C20.0014 4.6169 20.0496 4.69823 20.1201 4.75916C20.1341 4.76805 20.1458 4.77985 20.1544 4.79368C20.1631 4.80751 20.1684 4.82304 20.17 4.83911C20.1716 4.85519 20.1695 4.87141 20.1638 4.88659C20.1581 4.90177 20.149 4.91554 20.1371 4.92687C20.027 5.07004 19.8893 5.06595 19.6501 5.13139C19.4108 5.19684 19.2266 6.22765 19.4384 6.18266C19.6501 6.13766 19.919 5.9495 20.2154 6.04767C20.5118 6.14584 21.6975 6.84123 21.2867 7.13779C21.2148 7.19097 20.677 6.66125 20.5033 6.60807C20.3848 6.56921 20.6494 6.97008 20.6897 7.09484C20.8283 7.46691 20.8672 7.86681 20.8028 8.25731C20.7384 8.64782 20.5727 9.01623 20.3213 9.32826C20.1667 9.54506 20.8612 9.77822 20.8358 10.0789C20.8104 10.3795 20.624 10.7313 20.4483 10.672C20.2726 10.6127 20.4314 10.1464 20.1836 10.0175C19.9359 9.88866 19.4913 9.38144 19.2965 9.66777C19.1017 9.95411 18.8603 10.6413 19.1483 10.7927C19.4362 10.944 19.8851 10.9501 19.9804 11.6108C20.0757 12.2714 19.3261 14.241 18.2866 14.5191C17.247 14.7973 17.3296 15.0857 17.681 15.3924C18.0325 15.6992 18.6825 16.6196 17.9139 17.1411C17.1454 17.6627 17.1813 16.9366 16.6711 16.7669C16.1608 16.5971 16.1058 17.317 16.4382 17.6647C16.7706 18.0124 17.4354 18.3478 17.4185 18.7548C17.4015 19.1619 17.2068 18.9982 16.9146 18.8796C16.6224 18.761 16.6647 18.3908 16.2455 18.1208C15.8263 17.8508 16.019 17.2189 15.7564 16.7341C15.4939 16.2494 15.0281 16.3721 14.6978 16.0572C14.3675 15.7422 14.6279 15.3413 14.2616 14.965C13.8953 14.5887 13.1289 14.3289 12.7668 14.9425C12.4687 15.4581 12.0348 15.8885 11.5092 16.1901C11.1069 16.4151 11.668 17.0082 11.325 17.4541C11.1883 17.6417 11.0141 17.801 10.8126 17.9224C10.7974 17.9305 10.7806 17.9354 10.7633 17.9367C10.7459 17.9379 10.7286 17.9355 10.7123 17.9297C10.696 17.9239 10.6812 17.9148 10.6689 17.9029C10.6566 17.8911 10.6471 17.8768 10.6411 17.8611C10.4463 17.3825 9.72643 15.5479 9.79418 14.8668C9.87252 14.0794 7.86323 13.9546 7.18147 13.521C6.49971 13.0874 5.99156 11.6946 5.77772 11.8562C5.56387 12.0178 5.58504 13.6581 6.04026 13.6356C6.28754 13.6186 6.53606 13.6338 6.77919 13.6806V13.6806C6.8173 13.7297 7.35085 14.4107 6.80036 14.9077C6.24987 15.4047 4.69367 15.9672 4.43325 15.7606C4.17282 15.554 4.28927 12.0791 3.97803 11.8092C3.6668 11.5392 3.73878 13.7276 3.73878 14.2144C3.73878 14.7011 3.86582 15.8997 4.09872 16.0285C4.33162 16.1574 5.26957 16.6319 5.41143 16.3987C5.55329 16.1656 5.38814 18.2394 4.21729 18.9389C3.04643 19.6384 4.55182 21.8739 4.71908 22.289C4.84823 22.6102 4.96257 23.5162 5.03879 23.913C5.04937 23.9682 5.03879 23.9621 4.99433 23.913C3.70287 22.6302 2.68832 21.1122 2.00968 19.4473C1.33104 17.7823 1.00184 16.0036 1.04125 14.2147C1.08065 12.4257 1.48786 10.6622 2.2392 9.02662C2.99054 7.39106 4.07101 5.91612 5.41778 4.68757V4.68757C5.45801 4.67326 9.22887 3.38066 9.53799 3.73039C9.84711 4.08013 8.94304 5.00663 9.53799 4.87574C10.1329 4.74484 11.1789 4.34806 11.4435 4.5669C11.7082 4.78575 11.9919 4.43192 12.5022 4.28057C13.0124 4.12922 14.196 3.6854 14.2362 3.66699C14.9176 3.75781 15.6086 3.75781 16.29 3.66699C17.2597 3.51564 18.6867 2.4971 19.3431 2.70777C19.9994 2.91843 20.4398 3.08 20.6261 3.43792C20.8125 3.79584 20.6389 4.03514 20.8231 4.22739C21.0073 4.41965 21.291 4.60372 21.4921 4.81233C21.6933 5.02095 22.0384 5.48522 22.0955 5.72861Z" stroke="#BDC8F1" stroke-width="1.6" stroke-miterlimit="10"/>
<path d="M21.4119 7.60193C21.4119 7.60193 21.6723 7.84736 21.594 7.97212C21.5156 8.09688 21.6808 8.49366 21.7591 8.56115C21.836 8.65794 21.8854 8.77242 21.9025 8.89329C21.9196 9.01417 21.9037 9.13725 21.8565 9.2504C21.7168 9.53674 21.7252 9.78012 21.5516 9.90488C21.378 10.0296 21.0371 10.4776 21.1853 10.6882C21.3335 10.8989 21.469 11.2261 21.5326 11.1423C21.5961 11.0584 21.4902 10.6964 21.6469 10.4448C21.8036 10.1933 22.1423 10.0992 22.352 9.81285C22.4447 9.70548 22.5025 9.57397 22.5179 9.43491C22.5334 9.29586 22.5058 9.1555 22.4388 9.03156C22.316 8.76977 21.992 8.34231 21.8375 8.33413C21.6829 8.32595 21.6956 8.23187 21.8375 8.1296C21.9793 8.02734 22.0725 8.14596 22.1339 7.8944C22.1953 7.64283 22.1085 7.70828 22.0471 7.52421C21.9857 7.34013 21.8565 7.57534 21.6723 7.52421C21.4881 7.47307 21.3949 7.39126 21.4119 7.60193Z" stroke="#BDC8F1" stroke-width="1.6" stroke-miterlimit="10"/>
<path d="M18.7735 18.7161C18.6677 18.9349 18.547 19.2846 18.7735 19.5198C19.0001 19.7551 20.0905 20.1191 20.3488 19.8553C20.6071 19.5914 20.5902 18.8326 20.8337 18.6281C21.0771 18.4236 20.5753 18.0739 20.6135 17.808C20.6516 17.5421 20.4335 17.1064 20.1604 17.2967C19.8872 17.4869 19.72 18.2027 19.4172 18.3643C19.1144 18.5259 18.7735 18.7161 18.7735 18.7161Z" stroke="#BDC8F1" stroke-width="1.6" stroke-miterlimit="10"/>
<path d="M23.512 18.0388C23.6899 17.6727 24.1133 18.3395 24.3589 18.0388C24.7697 17.5561 26.0041 17.5705 26.2814 17.9427C26.4932 18.2209 26.4254 18.5563 26.6922 18.6872C26.959 18.8181 27.0542 18.9674 26.6922 19.0369C26.3301 19.1064 26.1375 18.409 25.8707 18.7588C25.7885 18.8923 25.672 19.003 25.5326 19.0804C25.3931 19.1578 25.2354 19.1992 25.0746 19.2005C24.7125 19.2476 25.0746 18.8753 24.8819 18.7342C24.6892 18.5931 24.0075 18.8038 23.8868 18.5951C23.7661 18.3865 23.3109 18.4561 23.512 18.0388Z" stroke="#BDC8F1" stroke-width="1.6" stroke-miterlimit="10"/>
<path d="M26.26 22.5466C26.26 22.5466 26.6072 21.7285 26.4717 21.3194C26.3362 20.9104 25.6248 20.1413 25.6248 19.7364C25.6248 19.3314 25.4004 19.6362 25.3665 20.1822C25.3327 20.7283 25.3327 21.0883 25.0278 21.0494C24.7229 21.0106 24.6043 20.6833 24.5196 20.4113C24.4349 20.1393 23.6727 19.9205 23.5012 20.4113C23.3297 20.9022 22.1335 22.1314 21.4665 22.5384C20.7996 22.9454 19.7388 22.9883 19.9082 23.8289C20.0776 24.6695 20.2808 25.14 20.1898 25.2054C20.0988 25.2708 20.1326 25.4099 20.7318 25.095C21.331 24.78 23.2154 23.6755 23.4546 23.9926C23.5766 24.1534 23.7447 24.2762 23.938 24.346C24.1314 24.4158 24.3416 24.4294 24.5429 24.3853C25.1723 23.8244 25.7471 23.2089 26.26 22.5466Z" stroke="#BDC8F1" stroke-width="1.6" stroke-miterlimit="10"/>
<path d="M5.42841 22.1314C5.42841 22.1314 5.85186 21.888 5.85186 21.6957C5.85186 21.5035 5.94714 21.6385 6.12076 21.9555C6.29437 22.2725 6.21603 22.3891 6.30073 22.79C6.38542 23.1908 6.6649 23.7512 6.56962 23.7921C6.47434 23.833 5.85186 23.5242 5.74812 23.1336C5.64437 22.7429 5.68883 22.7511 5.48134 22.4934C5.27385 22.2357 5.30984 22.2255 5.42841 22.1314Z" stroke="#BDC8F1" stroke-width="1.6" stroke-miterlimit="10"/>
<path d="M11.4814 17.8695C11.4814 18.1149 11.3713 18.6876 11.6614 18.5281C11.9515 18.3685 11.8731 18.3235 11.8139 18.1354C11.7374 17.973 11.6497 17.8159 11.5513 17.665C11.509 17.5729 11.4899 17.6977 11.4814 17.8695Z" stroke="#BDC8F1" stroke-width="1.6" stroke-miterlimit="10"/>
<path d="M14.8398 18.6527C14.8398 18.6527 16.0509 19.6754 16.0615 19.8451C16.0721 20.0149 17.5013 20.9802 17.7045 20.9107C17.9078 20.8412 17.9162 20.4464 17.8231 20.2624C17.7299 20.0783 16.7644 19.7285 16.6141 19.6017C16.3979 19.4182 16.1687 19.2494 15.9281 19.0966C15.6889 18.9616 14.9457 18.4114 14.8398 18.6527Z" stroke="#BDC8F1" stroke-width="1.6" stroke-miterlimit="10"/>
<path d="M18.3247 20.8512C18.2972 20.8349 18.4412 20.6978 18.5365 20.5853C18.6317 20.4728 19.1716 20.6671 19.5443 20.6365C19.9169 20.6058 21.2381 20.4544 21.4498 20.4135C21.6615 20.3726 21.9029 20.2929 21.9558 20.4135C22.0088 20.5342 21.2085 20.9637 20.6855 20.9126C20.1625 20.8614 18.6444 21.023 18.3247 20.8512Z" stroke="#BDC8F1" stroke-width="1.6" stroke-miterlimit="10"/>
<path d="M15.5533 1.02254C15.5533 1.06549 14.772 1.28229 14.4269 1.39683C13.9823 1.54613 13.4064 1.52568 13.2286 1.71998C13.0507 1.91428 12.3181 2.10653 11.8735 2.08608C11.4289 2.06562 9.98489 2.42763 9.67366 2.46854C9.36242 2.50944 9.77952 2.02676 9.81975 1.97972C11.4732 1.33659 13.2395 1.00743 15.0219 1.01027C15.1997 1.01027 15.3755 1.01232 15.5533 1.02254Z" stroke="#BDC8F1" stroke-width="1.6" stroke-miterlimit="10"/>
<path d="M21.3458 2.52972C21.2823 2.67698 20.8716 2.65857 20.626 2.67494C20.3804 2.6913 19.8256 2.06136 19.7007 2.12476C19.5758 2.18816 19.0973 2.13703 18.8157 2.12476C18.5722 2.12067 18.2186 1.548 18.1212 1.38233C18.1195 1.37902 18.1186 1.37535 18.1187 1.37163C18.1187 1.36791 18.1198 1.36426 18.1216 1.36102C18.1235 1.35778 18.1262 1.35504 18.1295 1.35305C18.1327 1.35106 18.1364 1.34987 18.1403 1.34961V1.34961C19.2984 1.57459 20.7551 2.1084 21.3416 2.52972H21.3458Z" stroke="#BDC8F1" stroke-width="1.6" stroke-miterlimit="10"/>
<path d="M4.16846 18.9798L4.81846 18.3662C4.86081 18.4092 4.33784 18.8203 4.35901 18.8407L4.68931 18.5319" stroke="#BDC8F1" stroke-width="1.6" stroke-linecap="round" stroke-linejoin="round"/>
<path d="M11.5093 16.1861C11.5686 16.2433 12.5679 15.1184 12.6081 15.1634C12.6484 15.2084 11.7104 15.9222 11.7909 16.002C12.0129 15.8163 12.2249 15.6197 12.4261 15.4129C12.4261 15.4129 11.8713 15.8895 11.901 15.9202C11.901 15.9202 12.3117 15.4763 12.3414 15.5111" stroke="#BDC8F1" stroke-width="1.6" stroke-linecap="round" stroke-linejoin="round"/>
</svg>
