<svg width="27" height="27" viewBox="0 0 27 27" fill="none" xmlns="http://www.w3.org/2000/svg">
<path fill-rule="evenodd" clip-rule="evenodd" d="M11.9197 14.2746L4.10237 11.7356C1.6894 10.9519 0.48291 10.5601 0.48291 9.83344C0.48291 9.1068 1.6894 8.71495 4.10238 7.93125L23.6905 1.56929C25.3508 1.03005 26.1809 0.760435 26.6146 1.20088C27.0482 1.64133 26.7657 2.46717 26.2006 4.11886L19.638 23.302C18.8529 25.5967 18.4604 26.744 17.7456 26.744C17.0308 26.744 16.6383 25.5967 15.8533 23.302L13.1943 15.5294C13.0355 15.0652 12.9561 14.8331 12.7879 14.6675C12.6197 14.5019 12.3864 14.4261 11.9197 14.2746Z" fill="#222222"/>
</svg>
