<svg width="29" height="29" viewBox="0 0 29 29" fill="none" xmlns="http://www.w3.org/2000/svg">
<path d="M17.3795 2.80099L16.3844 2.9005L16.3844 2.9005L17.3795 2.80099ZM16.9654 1.25855L17.6364 0.517096L17.6364 0.517094L16.9654 1.25855ZM17.3908 2.91432L18.3858 2.81482V2.81481L17.3908 2.91432ZM20.6474 4.26323L21.2806 5.03718L21.2806 5.03718L20.6474 4.26323ZM20.7355 4.19107L20.1023 3.41711L20.1023 3.41712L20.7355 4.19107ZM22.119 3.3932L22.0692 4.39196L22.119 3.3932ZM23.4162 4.32477L22.7091 5.03188L23.4162 4.32477ZM24.6749 5.58346L23.9678 6.29056L23.9678 6.29056L24.6749 5.58346ZM24.8086 8.26415L25.5826 8.89739L25.5826 8.89738L24.8086 8.26415ZM24.7367 8.35202L23.9628 7.71878V7.71878L24.7367 8.35202ZM23.4063 10.8107L22.4825 11.1934V11.1934L23.4063 10.8107ZM26.0856 11.6086L25.9861 12.6036L26.0856 11.6086ZM27.7415 12.034L28.4829 11.363V11.363L27.7415 12.034ZM27.7415 16.966L27 16.295H27L27.7415 16.966ZM26.199 17.3801V18.3801H26.2489L26.2985 18.3751L26.199 17.3801ZM26.199 17.3801V16.3801H26.1491L26.0995 16.3851L26.199 17.3801ZM26.086 17.3914L25.9865 16.3964L25.9865 16.3964L26.086 17.3914ZM23.4067 18.1893L24.3306 18.5719L24.3306 18.5719L23.4067 18.1893ZM24.7371 20.648L25.5111 20.0147L25.5111 20.0147L24.7371 20.648ZM24.8087 20.7355L24.0347 21.3687L24.0347 21.3687L24.8087 20.7355ZM25.6066 22.1189L26.6053 22.1687L25.6066 22.1189ZM24.675 23.4161L23.9679 22.709H23.9679L24.675 23.4161ZM23.4163 24.6748L24.1234 25.3819H24.1234L23.4163 24.6748ZM22.1191 25.6064L22.1689 26.6052H22.1689L22.1191 25.6064ZM20.7356 24.8085L20.1024 25.5825L20.1024 25.5825L20.7356 24.8085ZM20.6474 24.7363L21.2806 23.9624L21.2806 23.9624L20.6474 24.7363ZM17.3908 26.0852L18.3859 26.1848V26.1847L17.3908 26.0852ZM17.3795 26.199L16.3844 26.0995L16.3844 26.0995L17.3795 26.199ZM16.9654 27.7415L17.6364 28.4829L17.6364 28.4829L16.9654 27.7415ZM12.0334 27.7415L11.3623 28.4829L11.3623 28.4829L12.0334 27.7415ZM11.6193 26.199L10.6242 26.2985V26.2985L11.6193 26.199ZM11.608 26.0862L12.603 25.9867V25.9867L11.608 26.0862ZM8.35144 24.7373L8.98467 25.5112L8.98468 25.5112L8.35144 24.7373ZM8.26372 24.809L7.63049 24.0351L7.63048 24.0351L8.26372 24.809ZM6.88025 25.6069L6.83043 26.6057H6.83044L6.88025 25.6069ZM5.58303 24.6753L4.87593 25.3824H4.87593L5.58303 24.6753ZM4.32435 23.4167L3.61724 24.1238L3.61724 24.1238L4.32435 23.4167ZM3.39277 22.1194L2.39402 22.1693V22.1693L3.39277 22.1194ZM4.19065 20.736L4.9646 21.3692H4.96461L4.19065 20.736ZM4.26267 20.6479L3.48871 20.0147H3.48871L4.26267 20.6479ZM2.91377 17.3914L3.01327 16.3963L3.01326 16.3963L2.91377 17.3914ZM2.80099 17.3801L2.90049 16.3851L2.85086 16.3801H2.80099V17.3801ZM2.80097 17.3801L2.70147 18.3751L2.7511 18.3801H2.80097V17.3801ZM1.25855 16.966L2 16.295H2L1.25855 16.966ZM1.25855 12.034L0.517096 11.363L0.517095 11.363L1.25855 12.034ZM2.80099 11.6199L2.9005 12.6149H2.9005L2.80099 11.6199ZM2.91416 11.6086L2.81466 10.6136H2.81466L2.91416 11.6086ZM5.59345 10.8107L6.51733 11.1934V11.1934L5.59345 10.8107ZM4.26307 8.35204L3.48911 8.98528L3.48911 8.98528L4.26307 8.35204ZM4.19074 8.26363L4.96469 7.6304L4.96469 7.6304L4.19074 8.26363ZM4.32443 5.58294L5.03154 6.29005L5.03154 6.29005L4.32443 5.58294ZM5.58312 4.32426L6.29023 5.03137L5.58312 4.32426ZM6.88034 3.39268L6.83052 2.39392L6.88034 3.39268ZM8.26381 4.19056L8.89705 3.4166L8.89705 3.4166L8.26381 4.19056ZM8.35148 4.26229L9.05859 3.55518L9.02332 3.51991L8.98472 3.48833L8.35148 4.26229ZM8.35148 4.26229L7.64438 4.9694L7.67965 5.00467L7.71825 5.03625L8.35148 4.26229ZM10.8102 5.59267L10.4275 4.66879V4.66879L10.8102 5.59267ZM11.608 2.91338L12.6031 3.01289V3.01289L11.608 2.91338ZM11.6193 2.80099L10.6242 2.70149V2.70149L11.6193 2.80099ZM12.0334 1.25855L12.7044 2L12.7044 2L12.0334 1.25855ZM18.3745 2.70149C18.3344 2.30013 18.2967 1.9035 18.2216 1.57987C18.1401 1.22844 17.9888 0.836056 17.6364 0.517096L16.2944 2C16.2276 1.93959 16.2406 1.89046 16.2733 2.03163C16.3125 2.20061 16.339 2.44593 16.3844 2.9005L18.3745 2.70149ZM18.3858 2.81481L18.3745 2.70148L16.3844 2.9005L16.3958 3.01383L18.3858 2.81481ZM18.5713 4.66973C18.7452 4.74176 18.7007 4.88337 18.6135 4.5367C18.5259 4.18861 18.4709 3.66539 18.3858 2.81482L16.3958 3.01382C16.4741 3.79679 16.5416 4.49871 16.6739 5.02464C16.8066 5.55199 17.0793 6.21648 17.806 6.51749L18.5713 4.66973ZM20.0141 3.48927C19.3525 4.03057 18.9437 4.36166 18.6356 4.54587C18.3288 4.72934 18.3974 4.5977 18.5713 4.66973L17.806 6.51749C18.5327 6.8185 19.1954 6.54146 19.6621 6.26238C20.1275 5.98405 20.6716 5.53546 21.2806 5.03718L20.0141 3.48927ZM20.1023 3.41712L20.0141 3.48927L21.2806 5.03718L21.3688 4.96502L20.1023 3.41712ZM22.1688 2.39444C21.6941 2.37076 21.3096 2.54124 21.0035 2.73212C20.7216 2.90789 20.4145 3.16169 20.1023 3.41711L21.3688 4.96503C21.7224 4.67574 21.9145 4.521 22.0617 4.42922C22.1847 4.35254 22.1591 4.39644 22.0692 4.39196L22.1688 2.39444ZM24.1233 3.61767C23.8381 3.33244 23.5578 3.04935 23.2948 2.8464C23.0092 2.626 22.6436 2.41812 22.1688 2.39444L22.0692 4.39196C21.9793 4.38747 21.9582 4.34125 22.0729 4.42978C22.2102 4.53575 22.3861 4.70885 22.7091 5.03188L24.1233 3.61767ZM25.382 4.87635L24.1233 3.61766L22.7091 5.03188L23.9678 6.29056L25.382 4.87635ZM26.6052 6.83086C26.5816 6.3561 26.3737 5.99053 26.1533 5.70493C25.9503 5.44192 25.6672 5.16157 25.382 4.87635L23.9678 6.29056C24.2908 6.6136 24.4639 6.78944 24.5699 6.92677C24.6584 7.0415 24.6122 7.02041 24.6077 6.93049L26.6052 6.83086ZM25.5826 8.89738C25.838 8.5852 26.0918 8.27807 26.2676 7.99618C26.4585 7.69006 26.6289 7.30562 26.6052 6.83086L24.6077 6.93049C24.6032 6.84056 24.6471 6.81498 24.5705 6.93795C24.4787 7.08514 24.3239 7.27734 24.0347 7.63091L25.5826 8.89738ZM25.5107 8.98526L25.5826 8.89739L24.0347 7.63091L23.9628 7.71878L25.5107 8.98526ZM24.3302 10.428C24.4022 10.6019 24.2706 10.6706 24.4541 10.3638C24.6383 10.0557 24.9694 9.64685 25.5107 8.98526L23.9628 7.71878C23.4645 8.32779 23.0159 8.87187 22.7376 9.33732C22.4585 9.80402 22.1814 10.4667 22.4825 11.1934L24.3302 10.428ZM26.1851 10.6135C25.3346 10.5285 24.8113 10.4735 24.4632 10.3859C24.1166 10.2987 24.2582 10.2542 24.3302 10.428L22.4825 11.1934C22.7835 11.9201 23.448 12.1928 23.9753 12.3255C24.5012 12.4578 25.2032 12.5253 25.9861 12.6036L26.1851 10.6135ZM26.2985 10.6249L26.1851 10.6135L25.9861 12.6036L26.0995 12.6149L26.2985 10.6249ZM28.4829 11.363C28.1639 11.0105 27.7716 10.8592 27.4201 10.7778C27.0965 10.7027 26.6999 10.665 26.2985 10.6249L26.0995 12.6149C26.5541 12.6604 26.7994 12.6869 26.9684 12.7261C27.1095 12.7588 27.0604 12.7718 27 12.705L28.4829 11.363ZM29 13.61C29 13.2066 29.0019 12.8082 28.9595 12.4787C28.9134 12.1209 28.8019 11.7154 28.4829 11.363L27 12.705C26.9396 12.6382 26.9574 12.5906 26.9759 12.7344C26.9981 12.9064 27 13.1531 27 13.61H29ZM29 15.39V13.61H27V15.39H29ZM28.4829 17.637C28.8019 17.2846 28.9134 16.8791 28.9595 16.5213C29.0019 16.1918 29 15.7934 29 15.39H27C27 15.8469 26.9981 16.0936 26.9759 16.2656C26.9574 16.4094 26.9396 16.3618 27 16.295L28.4829 17.637ZM26.2985 18.3751C26.6999 18.335 27.0965 18.2973 27.4201 18.2223C27.7716 18.1408 28.1639 17.9895 28.4829 17.637L27 16.295C27.0604 16.2283 27.1095 16.2412 26.9684 16.2739C26.7994 16.3131 26.5541 16.3396 26.0995 16.3851L26.2985 18.3751ZM26.199 18.3801H26.199V16.3801H26.199V18.3801ZM26.1855 18.3864L26.2985 18.3751L26.0995 16.3851L25.9865 16.3964L26.1855 18.3864ZM24.3306 18.5719C24.2586 18.7458 24.117 18.7013 24.4636 18.6141C24.8117 18.5265 25.335 18.4715 26.1855 18.3864L25.9865 16.3964C25.2036 16.4747 24.5016 16.5422 23.9757 16.6745C23.4484 16.8072 22.7839 17.0799 22.4829 17.8066L24.3306 18.5719ZM25.5111 20.0147C24.9698 19.3531 24.6387 18.9443 24.4545 18.6362C24.271 18.3294 24.4026 18.3981 24.3306 18.5719L22.4829 17.8066C22.1818 18.5333 22.4589 19.196 22.738 19.6627C23.0163 20.1281 23.4649 20.6722 23.9632 21.2812L25.5111 20.0147ZM25.5827 20.1022L25.5111 20.0147L23.9632 21.2812L24.0347 21.3687L25.5827 20.1022ZM26.6053 22.1687C26.629 21.694 26.4585 21.3095 26.2677 21.0034C26.0919 20.7215 25.8381 20.4144 25.5827 20.1022L24.0347 21.3687C24.324 21.7223 24.4788 21.9145 24.5706 22.0616C24.6472 22.1846 24.6033 22.159 24.6078 22.0691L26.6053 22.1687ZM25.3821 24.1232C25.6673 23.838 25.9504 23.5577 26.1534 23.2947C26.3738 23.0091 26.5817 22.6435 26.6053 22.1687L24.6078 22.0691C24.6123 21.9792 24.6585 21.9581 24.57 22.0728C24.464 22.2102 24.2909 22.386 23.9679 22.709L25.3821 24.1232ZM24.1234 25.3819L25.3821 24.1232L23.9679 22.709L22.7092 23.9677L24.1234 25.3819ZM24.1234 25.3819L24.1234 25.3819L22.7092 23.9677L22.7092 23.9677L24.1234 25.3819ZM22.1689 26.6052C22.6437 26.5815 23.0092 26.3736 23.2948 26.1532C23.5578 25.9503 23.8382 25.6672 24.1234 25.3819L22.7092 23.9677C22.3862 24.2908 22.2103 24.4639 22.073 24.5698C21.9583 24.6584 21.9794 24.6121 22.0693 24.6076L22.1689 26.6052ZM20.1024 25.5825C20.4146 25.8379 20.7217 26.0917 21.0036 26.2675C21.3097 26.4584 21.6942 26.6288 22.1689 26.6052L22.0693 24.6076C22.1592 24.6032 22.1848 24.6471 22.0618 24.5704C21.9146 24.4786 21.7224 24.3239 21.3689 24.0346L20.1024 25.5825ZM20.0142 25.5103L20.1024 25.5825L21.3689 24.0346L21.2806 23.9624L20.0142 25.5103ZM18.5714 24.3298C18.3975 24.4019 18.3288 24.2702 18.6357 24.4537C18.9437 24.6379 19.3526 24.969 20.0142 25.5103L21.2806 23.9624C20.6716 23.4641 20.1275 23.0155 19.6621 22.7372C19.1954 22.4581 18.5327 22.1811 17.806 22.4821L18.5714 24.3298ZM18.3859 26.1847C18.4709 25.3342 18.5259 24.8109 18.6135 24.4629C18.7007 24.1162 18.7453 24.2578 18.5714 24.3298L17.806 22.4821C17.0793 22.7831 16.8066 23.4476 16.6739 23.9749C16.5416 24.5009 16.4741 25.2028 16.3958 25.9857L18.3859 26.1847ZM18.3745 26.2985L18.3859 26.1848L16.3958 25.9857L16.3844 26.0995L18.3745 26.2985ZM17.6364 28.4829C17.9888 28.1639 18.1401 27.7716 18.2216 27.4201C18.2967 27.0965 18.3344 26.6999 18.3745 26.2985L16.3844 26.0995C16.339 26.5541 16.3125 26.7994 16.2733 26.9684C16.2406 27.1095 16.2276 27.0604 16.2944 27L17.6364 28.4829ZM15.3894 29C15.7928 29 16.1912 29.0019 16.5207 28.9595C16.8785 28.9134 17.2839 28.8019 17.6364 28.4829L16.2944 27C16.3611 26.9396 16.4087 26.9574 16.265 26.9759C16.093 26.9981 15.8462 27 15.3894 27V29ZM13.6093 29H15.3894V27H13.6093V29ZM11.3623 28.4829C11.7148 28.8019 12.1203 28.9134 12.4781 28.9595C12.8076 29.0019 13.206 29 13.6093 29V27C13.1525 27 12.9058 26.9981 12.7337 26.9759C12.59 26.9574 12.6376 26.9396 12.7044 27L11.3623 28.4829ZM10.6242 26.2985C10.6644 26.6999 10.7021 27.0965 10.7771 27.4201C10.8586 27.7716 11.0099 28.1639 11.3623 28.4829L12.7044 27C12.7711 27.0604 12.7582 27.1095 12.7254 26.9684C12.6862 26.7994 12.6598 26.5541 12.6143 26.0995L10.6242 26.2985ZM10.613 26.1857L10.6242 26.2985L12.6143 26.0995L12.603 25.9867L10.613 26.1857ZM10.4275 24.3308C10.2536 24.2587 10.2981 24.1171 10.3853 24.4638C10.4729 24.8119 10.5279 25.3351 10.613 26.1857L12.603 25.9867C12.5247 25.2037 12.4572 24.5018 12.3249 23.9759C12.1922 23.4485 11.9195 22.784 11.1928 22.483L10.4275 24.3308ZM8.98468 25.5112C9.64627 24.9699 10.0551 24.6388 10.3632 24.4546C10.67 24.2712 10.6013 24.4028 10.4275 24.3308L11.1928 22.483C10.4661 22.182 9.80343 22.459 9.33673 22.7381C8.87129 23.0165 8.3272 23.465 7.7182 23.9633L8.98468 25.5112ZM8.89695 25.583L8.98467 25.5112L7.71821 23.9633L7.63049 24.0351L8.89695 25.583ZM6.83044 26.6057C7.30519 26.6294 7.68963 26.4589 7.99575 26.268C8.27765 26.0922 8.58477 25.8384 8.89696 25.583L7.63048 24.0351C7.27691 24.3244 7.08472 24.4791 6.93753 24.5709C6.81456 24.6476 6.84014 24.6037 6.93006 24.6082L6.83044 26.6057ZM4.87593 25.3824C5.16115 25.6677 5.4415 25.9508 5.7045 26.1537C5.99011 26.3741 6.35568 26.582 6.83043 26.6057L6.93007 24.6082C7.01999 24.6126 7.04107 24.6589 6.92634 24.5703C6.78902 24.4644 6.61317 24.2913 6.29014 23.9682L4.87593 25.3824ZM3.61724 24.1238L4.87593 25.3824L6.29014 23.9682L5.03146 22.7095L3.61724 24.1238ZM2.39402 22.1693C2.41769 22.644 2.62558 23.0096 2.84597 23.2952C3.04893 23.5582 3.33202 23.8385 3.61724 24.1238L5.03146 22.7096C4.70843 22.3865 4.53533 22.2107 4.42936 22.0733C4.34082 21.9586 4.38705 21.9797 4.39153 22.0696L2.39402 22.1693ZM3.41669 20.1027C3.16126 20.4149 2.90747 20.722 2.73169 21.0039C2.54081 21.3101 2.37034 21.6945 2.39402 22.1693L4.39153 22.0696C4.39602 22.1595 4.35212 22.1851 4.4288 22.0622C4.52058 21.915 4.67532 21.7228 4.9646 21.3692L3.41669 20.1027ZM3.48871 20.0147L3.41669 20.1027L4.96461 21.3692L5.03663 21.2812L3.48871 20.0147ZM4.66917 18.5719C4.59715 18.398 4.72878 18.3294 4.54532 18.6362C4.36111 18.9442 4.03002 19.3531 3.48871 20.0147L5.03663 21.2812C5.5349 20.6722 5.9835 20.1281 6.26183 19.6626C6.54091 19.1959 6.81794 18.5332 6.51693 17.8065L4.66917 18.5719ZM2.81426 18.3864C3.66483 18.4715 4.18806 18.5265 4.53614 18.614C4.88281 18.7013 4.7412 18.7458 4.66917 18.5719L6.51693 17.8065C6.21592 17.0798 5.55144 16.8071 5.02409 16.6745C4.49816 16.5422 3.79623 16.4746 3.01327 16.3963L2.81426 18.3864ZM2.7015 18.3751L2.81427 18.3864L3.01326 16.3963L2.90049 16.3851L2.7015 18.3751ZM2.80097 18.3801H2.80099V16.3801H2.80097V18.3801ZM0.517094 17.637C0.836053 17.9895 1.22843 18.1408 1.57987 18.2223C1.90349 18.2973 2.30011 18.335 2.70147 18.3751L2.90048 16.3851C2.44592 16.3396 2.2006 16.3131 2.03163 16.2739C1.89046 16.2412 1.93959 16.2283 2 16.295L0.517094 17.637ZM0 15.39C0 15.7934 -0.00194263 16.1918 0.0405216 16.5213C0.0866349 16.8791 0.198134 17.2846 0.517094 17.637L2 16.295C2.06041 16.3618 2.04264 16.4094 2.02412 16.2656C2.00194 16.0936 2 15.8469 2 15.39H0ZM0 13.61V15.39H2V13.61H0ZM0.517095 11.363C0.198134 11.7154 0.0866349 12.1209 0.0405216 12.4787C-0.00194263 12.8082 0 13.2066 0 13.61H2C2 13.1531 2.00194 12.9064 2.02412 12.7344C2.04264 12.5906 2.06041 12.6382 2 12.705L0.517095 11.363ZM2.70149 10.6249C2.30013 10.665 1.9035 10.7027 1.57987 10.7778C1.22844 10.8592 0.836056 11.0105 0.517096 11.363L2 12.705C1.93959 12.7718 1.89046 12.7588 2.03163 12.7261C2.20061 12.6869 2.44593 12.6604 2.9005 12.6149L2.70149 10.6249ZM2.81466 10.6136L2.70149 10.6249L2.9005 12.6149L3.01367 12.6036L2.81466 10.6136ZM4.66957 10.4281C4.7416 10.2542 4.88321 10.2987 4.53654 10.3859C4.18846 10.4735 3.66523 10.5285 2.81466 10.6136L3.01367 12.6036C3.79663 12.5253 4.49856 12.4578 5.02449 12.3255C5.55183 12.1928 6.21632 11.9201 6.51733 11.1934L4.66957 10.4281ZM3.48911 8.98528C4.03041 9.64687 4.3615 10.0557 4.54571 10.3638C4.72918 10.6706 4.59754 10.602 4.66957 10.4281L6.51733 11.1934C6.81834 10.4667 6.5413 9.80404 6.26222 9.33734C5.98389 8.87189 5.5353 8.32781 5.03703 7.7188L3.48911 8.98528ZM3.41678 8.89687L3.48911 8.98528L5.03703 7.71881L4.96469 7.6304L3.41678 8.89687ZM2.3941 6.83035C2.37042 7.3051 2.5409 7.68954 2.73178 7.99566C2.90756 8.27756 3.16135 8.58468 3.41678 8.89687L4.96469 7.6304C4.67541 7.27682 4.52067 7.08463 4.42888 6.93744C4.35221 6.81447 4.3961 6.84005 4.39162 6.92997L2.3941 6.83035ZM3.61733 4.87584C3.33211 5.16106 3.04901 5.4414 2.84606 5.70441C2.62566 5.99002 2.41778 6.35559 2.3941 6.83035L4.39162 6.92997C4.38713 7.01989 4.34091 7.04098 4.42944 6.92625C4.53541 6.78893 4.70851 6.61308 5.03154 6.29005L3.61733 4.87584ZM4.87601 3.61715L3.61733 4.87584L5.03154 6.29005L6.29023 5.03137L4.87601 3.61715ZM6.83052 2.39392C6.35576 2.4176 5.9902 2.62549 5.70459 2.84588C5.44158 3.04884 5.16123 3.33193 4.87601 3.61715L6.29023 5.03137C6.61326 4.70833 6.7891 4.53524 6.92643 4.42926C7.04116 4.34073 7.02007 4.38696 6.93015 4.39144L6.83052 2.39392ZM8.89705 3.4166C8.58486 3.16117 8.27774 2.90738 7.99584 2.7316C7.68972 2.54072 7.30528 2.37025 6.83052 2.39392L6.93015 4.39144C6.84023 4.39593 6.81465 4.35203 6.93761 4.42871C7.08481 4.52049 7.277 4.67523 7.63057 4.96451L8.89705 3.4166ZM8.98472 3.48833L8.89705 3.4166L7.63057 4.96451L7.71824 5.03624L8.98472 3.48833ZM9.05859 3.55518L9.05859 3.55518L7.64437 4.9694L7.64438 4.9694L9.05859 3.55518ZM10.4275 4.66879C10.6014 4.59676 10.67 4.7284 10.3632 4.54494C10.0552 4.36072 9.64631 4.02963 8.98472 3.48833L7.71825 5.03625C8.32725 5.53452 8.87133 5.98312 9.33678 6.26145C9.80348 6.54052 10.4662 6.81756 11.1929 6.51655L10.4275 4.66879ZM10.613 2.81388C10.5279 3.66445 10.4729 4.18768 10.3854 4.53576C10.2982 4.88243 10.2536 4.74082 10.4275 4.66879L11.1929 6.51655C11.9196 6.21554 12.1923 5.55105 12.3249 5.02371C12.4573 4.49778 12.5248 3.79585 12.6031 3.01289L10.613 2.81388ZM10.6242 2.70149L10.613 2.81388L12.6031 3.01289L12.6143 2.90049L10.6242 2.70149ZM11.3623 0.517094C11.0099 0.836055 10.8586 1.22844 10.7771 1.57987C10.7021 1.9035 10.6644 2.30012 10.6242 2.70149L12.6143 2.90049C12.6598 2.44593 12.6862 2.20061 12.7254 2.03163C12.7582 1.89046 12.7711 1.93959 12.7044 2L11.3623 0.517094ZM13.6093 0C13.206 0 12.8076 -0.00194263 12.4781 0.0405216C12.1203 0.0866349 11.7148 0.198134 11.3623 0.517096L12.7044 2C12.6376 2.06041 12.59 2.04264 12.7337 2.02412C12.9058 2.00194 13.1525 2 13.6093 2V0ZM15.3894 0H13.6093V2H15.3894V0ZM17.6364 0.517094C17.2839 0.198134 16.8785 0.0866349 16.5207 0.0405216C16.1912 -0.00194263 15.7928 0 15.3894 0V2C15.8462 2 16.093 2.00194 16.265 2.02412C16.4087 2.04264 16.3611 2.06041 16.2944 2L17.6364 0.517094ZM18.8996 14.5001C18.8996 16.9302 16.9297 18.9001 14.4996 18.9001V20.9001C18.0342 20.9001 20.8996 18.0347 20.8996 14.5001H18.8996ZM14.4996 10.1001C16.9297 10.1001 18.8996 12.07 18.8996 14.5001H20.8996C20.8996 10.9655 18.0342 8.1001 14.4996 8.1001V10.1001ZM10.0996 14.5001C10.0996 12.07 12.0696 10.1001 14.4996 10.1001V8.1001C10.965 8.1001 8.09961 10.9655 8.09961 14.5001H10.0996ZM14.4996 18.9001C12.0696 18.9001 10.0996 16.9302 10.0996 14.5001H8.09961C8.09961 18.0347 10.965 20.9001 14.4996 20.9001V18.9001Z" fill="#33363F"/>
</svg>
