<svg width="23" height="20" viewBox="0 0 23 20" fill="none" xmlns="http://www.w3.org/2000/svg">
<path fill-rule="evenodd" clip-rule="evenodd" d="M14.02 3.33333C14.02 1.49238 15.9423 0 18.3136 0C20.6848 0 22.6071 1.49238 22.6071 3.33333C22.6071 5.17428 20.6848 6.66667 18.3136 6.66667C17.1162 6.66667 16.0341 6.28596 15.2562 5.67347L9.3125 8.8295C9.36738 9.0425 9.39623 9.2625 9.39623 9.4872C9.39623 9.9322 9.28339 10.3576 9.07899 10.7464L15.5962 14.0858C16.336 13.6161 17.2824 13.3333 18.3136 13.3333C20.6848 13.3333 22.6071 14.8257 22.6071 16.6667C22.6071 18.5076 20.6848 20 18.3136 20C15.9423 20 14.02 18.5076 14.02 16.6667C14.02 16.1845 14.1523 15.7255 14.3902 15.3111L7.92559 11.9987C7.1715 12.5098 6.18371 12.8205 5.10263 12.8205C2.73137 12.8205 0.809082 11.3281 0.809082 9.4872C0.809082 7.64623 2.73137 6.15385 5.10263 6.15385C6.46619 6.15385 7.67999 6.64725 8.4659 7.41518L14.2263 4.35642C14.0923 4.03359 14.02 3.6896 14.02 3.33333Z" fill="#3CA3CF"/>
</svg>
