<svg width="17" height="21" viewBox="0 0 17 21" fill="none" xmlns="http://www.w3.org/2000/svg">
<path fill-rule="evenodd" clip-rule="evenodd" d="M1.2105 0.875C0.708889 0.875 0.302246 1.26675 0.302246 1.75V19.25C0.302246 19.7333 0.708889 20.125 1.2105 20.125C1.71211 20.125 2.11875 19.7333 2.11875 19.25V11.8985C2.54201 11.6955 3.21113 11.4125 3.92845 11.2398C5.21508 10.93 6.24764 11.0443 6.8126 11.8606C7.86708 13.3843 9.88085 13.5186 11.4307 13.3698C13.0662 13.2129 14.6842 12.6969 15.5022 12.4054C16.2209 12.1494 16.6508 11.4919 16.6508 10.7982V5.00795C16.6508 3.65047 15.1592 2.85796 13.9704 3.37733C13.0064 3.79853 11.7257 4.26891 10.5683 4.42426C9.35743 4.58681 8.65417 4.36686 8.32393 3.88976C7.13239 2.16793 5.0938 1.96408 3.63275 2.08137C3.07187 2.12641 2.55071 2.22089 2.11875 2.32093V1.75C2.11875 1.26675 1.71211 0.875 1.2105 0.875ZM2.11875 4.13094V9.97911C2.51913 9.82161 2.98718 9.66263 3.48791 9.54205C4.92604 9.19573 7.07236 9.08136 8.32393 10.8898C8.75862 11.518 9.76033 11.7715 11.2506 11.6285C12.6325 11.4958 14.0552 11.0531 14.8343 10.7775V5.00795C14.8343 4.9682 14.7508 4.95795 14.7207 4.9711C13.7058 5.41454 12.2363 5.96726 10.819 6.15752C9.45525 6.34059 7.75936 6.22869 6.8126 4.86052C6.18762 3.95749 5.04732 3.72388 3.78361 3.82533C3.13967 3.87703 2.54042 4.01298 2.11875 4.13094Z" fill="#3CA3CF"/>
</svg>
