<svg width="23" height="20" viewBox="0 0 23 20" fill="none" xmlns="http://www.w3.org/2000/svg">
<path fill-rule="evenodd" clip-rule="evenodd" d="M14.1725 3.33333C14.1725 1.49238 16.0968 0 18.4705 0C20.8443 0 22.7686 1.49238 22.7686 3.33333C22.7686 5.17428 20.8443 6.66667 18.4705 6.66667C17.2719 6.66667 16.1887 6.28596 15.41 5.67347L9.46007 8.8295C9.515 9.0425 9.54388 9.2625 9.54388 9.4872C9.54388 9.9322 9.43093 10.3576 9.22631 10.7464L15.7504 14.0858C16.4909 13.6161 17.4383 13.3333 18.4705 13.3333C20.8443 13.3333 22.7686 14.8257 22.7686 16.6667C22.7686 18.5076 20.8443 20 18.4705 20C16.0968 20 14.1725 18.5076 14.1725 16.6667C14.1725 16.1845 14.3049 15.7255 14.543 15.3111L8.07171 11.9987C7.31682 12.5098 6.328 12.8205 5.24579 12.8205C2.87206 12.8205 0.947754 11.3281 0.947754 9.4872C0.947754 7.64623 2.87206 6.15385 5.24579 6.15385C6.61078 6.15385 7.82585 6.64725 8.61258 7.41518L14.379 4.35642C14.2449 4.03359 14.1725 3.6896 14.1725 3.33333Z" fill="#3CA3CF"/>
</svg>
