<svg width="20" height="20" viewBox="0 0 20 20" fill="none" xmlns="http://www.w3.org/2000/svg">
<path d="M14.1332 18.9925H4.91666C4.31416 18.9925 4.01296 18.9925 3.87355 18.8727C3.81388 18.8215 3.76711 18.7569 3.73707 18.684C3.70704 18.6111 3.69458 18.5322 3.70072 18.4535C3.71514 18.2697 3.92814 18.0556 4.35404 17.6274L12.8093 9.12801C13.2031 8.73218 13.4001 8.53416 13.6271 8.46009C13.8268 8.39482 14.0419 8.39482 14.2416 8.46009C14.4687 8.53416 14.6656 8.73218 15.0594 9.12801L18.9063 12.995V14.1945M14.1332 18.9925C15.804 18.9925 16.6393 18.9925 17.2775 18.6656C17.8388 18.3782 18.2952 17.9194 18.5811 17.3552C18.9063 16.7136 18.9063 15.874 18.9063 14.1945M14.1332 18.9925H5.78039C4.10962 18.9925 3.27433 18.9925 2.63613 18.6656C2.07483 18.3782 1.61847 17.9194 1.33249 17.3552C1.00732 16.7136 1.00732 15.874 1.00732 14.1945V5.798C1.00732 4.1185 1.00732 3.27885 1.33249 2.63732C1.61849 2.07309 2.07484 1.61436 2.63613 1.32686C3.27433 1 4.10962 1 5.78039 1H14.1332C15.804 1 16.6393 1 17.2775 1.32686C17.8388 1.61434 18.2952 2.07308 18.5811 2.63732C18.9063 3.27885 18.9063 4.1185 18.9063 5.798V14.1945M8.46523 6.49771C8.46523 7.60185 7.57486 8.49688 6.47646 8.49688C5.37806 8.49688 4.48768 7.60185 4.48768 6.49771C4.48768 5.39357 5.37806 4.49854 6.47646 4.49854C7.57486 4.49854 8.46523 5.39357 8.46523 6.49771Z" stroke="#6C737F" stroke-width="1.99943" stroke-linecap="round" stroke-linejoin="round"/>
</svg>
