<svg width="28" height="26" viewBox="0 0 28 26" fill="none" xmlns="http://www.w3.org/2000/svg">
<path fill-rule="evenodd" clip-rule="evenodd" d="M0 12.6104C0 5.36486 6.11268 0 14 0C21.8874 0 28 5.36486 28 12.6104C28 19.856 21.8874 25.2209 14 25.2209C12.5831 25.2209 11.2225 25.0482 9.94647 24.7212C9.69859 24.6585 9.43662 24.6768 9.19999 24.7736L6.42253 25.9114C5.69577 26.2069 4.87606 25.7283 4.85071 24.9907L4.77465 22.6784C4.76338 22.3932 4.62535 22.129 4.39718 21.9381C1.67325 19.6756 0 16.4006 0 12.6104ZM9.70704 10.2406L5.59436 16.2987C5.19718 16.8793 5.96902 17.5358 6.55775 17.1199L10.9746 14.0073C11.2732 13.798 11.6845 13.7954 11.9859 14.0047L15.2564 16.2829C16.2366 16.9657 17.6394 16.7249 18.293 15.7624L22.4056 9.70435C22.8028 9.12366 22.031 8.46711 21.4423 8.88302L17.0254 11.9957C16.7267 12.205 16.3155 12.2076 16.0141 11.9983L12.7436 9.72004C11.7634 9.03734 10.3606 9.27798 9.70704 10.2406Z" fill="#BDC8F1"/>
</svg>
