<svg width="21" height="20" viewBox="0 0 21 20" fill="none" xmlns="http://www.w3.org/2000/svg">
<path fill-rule="evenodd" clip-rule="evenodd" d="M12.7272 3.33333C12.7272 1.49238 14.5792 0 16.8636 0C19.148 0 21 1.49238 21 3.33333C21 5.17428 19.148 6.66667 16.8636 6.66667C15.7101 6.66667 14.6676 6.28596 13.9182 5.67347L8.1921 8.8295C8.24497 9.0425 8.27276 9.2625 8.27276 9.4872C8.27276 9.9322 8.16406 10.3576 7.96714 10.7464L14.2458 14.0858C14.9584 13.6161 15.8702 13.3333 16.8636 13.3333C19.148 13.3333 21 14.8257 21 16.6667C21 18.5076 19.148 20 16.8636 20C14.5792 20 12.7272 18.5076 12.7272 16.6667C12.7272 16.1845 12.8547 15.7255 13.0839 15.3111L6.85597 11.9987C6.12948 12.5098 5.17786 12.8205 4.13636 12.8205C1.85192 12.8205 0 11.3281 0 9.4872C0 7.64623 1.85192 6.15385 4.13636 6.15385C5.44999 6.15385 6.61936 6.64725 7.3765 7.41518L12.926 4.35642C12.7969 4.03359 12.7272 3.6896 12.7272 3.33333Z" fill="#3CA3CF"/>
</svg>
