<svg width="18" height="21" viewBox="0 0 18 21" fill="none" xmlns="http://www.w3.org/2000/svg">
<path fill-rule="evenodd" clip-rule="evenodd" d="M1.71828 0.875C1.21615 0.875 0.809082 1.26675 0.809082 1.75V19.25C0.809082 19.7333 1.21615 20.125 1.71828 20.125C2.22042 20.125 2.62749 19.7333 2.62749 19.25V11.8985C3.05119 11.6955 3.72101 11.4125 4.43908 11.2398C5.72706 10.93 6.7607 11.0443 7.32624 11.8606C8.38182 13.3843 10.3977 13.5186 11.9492 13.3698C13.5864 13.2129 15.2061 12.6969 16.0249 12.4054C16.7444 12.1494 17.1747 11.4919 17.1747 10.7982V5.00795C17.1747 3.65047 15.6816 2.85796 14.4916 3.37733C13.5265 3.79853 12.2445 4.26891 11.0859 4.42426C9.87373 4.58681 9.16974 4.36686 8.83915 3.88976C7.64637 2.16793 5.60565 1.96408 4.14307 2.08137C3.5816 2.12641 3.05989 2.22089 2.62749 2.32093V1.75C2.62749 1.26675 2.22042 0.875 1.71828 0.875ZM2.62749 4.13094V9.97911C3.02829 9.82161 3.49683 9.66263 3.99808 9.54205C5.43771 9.19573 7.58627 9.08136 8.83915 10.8898C9.2743 11.518 10.2771 11.7715 11.7689 11.6285C13.1522 11.4958 14.5764 11.0531 15.3563 10.7775V5.00795C15.3563 4.9682 15.2728 4.95795 15.2427 4.9711C14.2266 5.41454 12.7556 5.96726 11.3368 6.15752C9.97165 6.34059 8.27399 6.22869 7.32624 4.86052C6.70061 3.95749 5.55912 3.72388 4.29409 3.82533C3.64947 3.87703 3.0496 4.01298 2.62749 4.13094Z" fill="#3CA3CF"/>
</svg>
