<svg width="17" height="21" viewBox="0 0 17 21" fill="none" xmlns="http://www.w3.org/2000/svg">
<path fill-rule="evenodd" clip-rule="evenodd" d="M1.13481 0.875C0.633205 0.875 0.226562 1.26675 0.226562 1.75V19.25C0.226562 19.7333 0.633205 20.125 1.13481 20.125C1.63642 20.125 2.04307 19.7333 2.04307 19.25V11.8985C2.46633 11.6955 3.13545 11.4125 3.85277 11.2398C5.1394 10.93 6.17196 11.0443 6.73691 11.8606C7.79139 13.3843 9.80517 13.5186 11.355 13.3698C12.9905 13.2129 14.6085 12.6969 15.4265 12.4054C16.1452 12.1494 16.5751 11.4919 16.5751 10.7982V5.00795C16.5751 3.65047 15.0836 2.85796 13.8948 3.37733C12.9307 3.79853 11.65 4.26891 10.4926 4.42426C9.28174 4.58681 8.57848 4.36686 8.24824 3.88976C7.05671 2.16793 5.01812 1.96408 3.55707 2.08137C2.99619 2.12641 2.47502 2.22089 2.04307 2.32093V1.75C2.04307 1.26675 1.63642 0.875 1.13481 0.875ZM2.04307 4.13094V9.97911C2.44345 9.82161 2.9115 9.66263 3.41223 9.54205C4.85035 9.19573 6.99667 9.08136 8.24824 10.8898C8.68293 11.518 9.68464 11.7715 11.1749 11.6285C12.5568 11.4958 13.9795 11.0531 14.7586 10.7775V5.00795C14.7586 4.9682 14.6751 4.95795 14.6451 4.9711C13.6301 5.41454 12.1606 5.96726 10.7433 6.15752C9.37956 6.34059 7.68367 6.22869 6.73691 4.86052C6.11194 3.95749 4.97163 3.72388 3.70793 3.82533C3.06399 3.87703 2.46474 4.01298 2.04307 4.13094Z" fill="#3CA3CF"/>
</svg>
