<svg width="23" height="20" viewBox="0 0 23 20" fill="none" xmlns="http://www.w3.org/2000/svg">
<path fill-rule="evenodd" clip-rule="evenodd" d="M13.9438 3.33333C13.9438 1.49238 15.8661 0 18.2374 0C20.6086 0 22.531 1.49238 22.531 3.33333C22.531 5.17428 20.6086 6.66667 18.2374 6.66667C17.04 6.66667 15.9579 6.28596 15.18 5.67347L9.23633 8.8295C9.29121 9.0425 9.32006 9.2625 9.32006 9.4872C9.32006 9.9322 9.20722 10.3576 9.00282 10.7464L15.5201 14.0858C16.2598 13.6161 17.2062 13.3333 18.2374 13.3333C20.6086 13.3333 22.531 14.8257 22.531 16.6667C22.531 18.5076 20.6086 20 18.2374 20C15.8661 20 13.9438 18.5076 13.9438 16.6667C13.9438 16.1845 14.0761 15.7255 14.314 15.3111L7.84942 11.9987C7.09532 12.5098 6.10754 12.8205 5.02646 12.8205C2.6552 12.8205 0.73291 11.3281 0.73291 9.4872C0.73291 7.64623 2.6552 6.15385 5.02646 6.15385C6.39002 6.15385 7.60382 6.64725 8.38973 7.41518L14.1501 4.35642C14.0161 4.03359 13.9438 3.6896 13.9438 3.33333Z" fill="#3CA3CF"/>
</svg>
